<mxfile host="app.diagrams.net" modified="2024-02-12T17:02:15.647Z" agent="Mozilla/5.0 (X11; Linux x86_64) AppleWebKit/537.36 (KHTML, like Gecko) Chrome/119.0.0.0 Safari/537.36" etag="JQFUxLSB-C8Iy8xn-oKm" version="23.0.2" type="device">
  <diagram id="7Hx7NnseiyXpqoFmk3Xk" name="Nextflow">
    <mxGraphModel dx="2121" dy="2518" grid="1" gridSize="10" guides="1" tooltips="1" connect="1" arrows="1" fold="1" page="1" pageScale="1" pageWidth="850" pageHeight="1100" math="0" shadow="0">
      <root>
        <mxCell id="0" />
        <mxCell id="1" parent="0" />
        <mxCell id="ESoNr6U8j9t_rjtpurHb-1" value="AWS Cloud" style="points=[[0,0],[0.25,0],[0.5,0],[0.75,0],[1,0],[1,0.25],[1,0.5],[1,0.75],[1,1],[0.75,1],[0.5,1],[0.25,1],[0,1],[0,0.75],[0,0.5],[0,0.25]];outlineConnect=0;gradientColor=none;html=1;whiteSpace=wrap;fontSize=12;fontStyle=0;shape=mxgraph.aws4.group;grIcon=mxgraph.aws4.group_aws_cloud;strokeColor=#232F3E;fillColor=default;verticalAlign=top;align=left;spacingLeft=30;fontColor=#232F3E;dashed=0;labelBackgroundColor=none;" parent="1" vertex="1">
          <mxGeometry x="320" y="-120" width="1160" height="1000" as="geometry" />
        </mxCell>
        <mxCell id="S3vcfllFPhW6Z8eUjY84-1" value="" style="whiteSpace=wrap;html=1;fillColor=default;gradientColor=none;" parent="1" vertex="1">
          <mxGeometry x="1190" y="-394" width="328" height="148" as="geometry" />
        </mxCell>
        <mxCell id="S3vcfllFPhW6Z8eUjY84-2" value="&lt;font color=&quot;#000000&quot;&gt;VPC&lt;/font&gt;" style="points=[[0,0],[0.25,0],[0.5,0],[0.75,0],[1,0],[1,0.25],[1,0.5],[1,0.75],[1,1],[0.75,1],[0.5,1],[0.25,1],[0,1],[0,0.75],[0,0.5],[0,0.25]];outlineConnect=0;gradientColor=none;html=1;whiteSpace=wrap;fontSize=12;fontStyle=0;shape=mxgraph.aws4.group;grIcon=mxgraph.aws4.group_vpc;strokeColor=#248814;fillColor=none;verticalAlign=top;align=left;spacingLeft=30;fontColor=#AAB7B8;dashed=0;" parent="1" vertex="1">
          <mxGeometry x="360" y="-20" width="600" height="845" as="geometry" />
        </mxCell>
        <mxCell id="S3vcfllFPhW6Z8eUjY84-7" value="" style="sketch=0;points=[[0,0,0],[0.25,0,0],[0.5,0,0],[0.75,0,0],[1,0,0],[0,1,0],[0.25,1,0],[0.5,1,0],[0.75,1,0],[1,1,0],[0,0.25,0],[0,0.5,0],[0,0.75,0],[1,0.25,0],[1,0.5,0],[1,0.75,0]];outlineConnect=0;fontColor=#232F3E;gradientColor=#F78E04;gradientDirection=north;fillColor=#D05C17;strokeColor=#ffffff;dashed=0;verticalLabelPosition=bottom;verticalAlign=top;align=center;html=1;fontSize=12;fontStyle=0;aspect=fixed;shape=mxgraph.aws4.resourceIcon;resIcon=mxgraph.aws4.ec2;" parent="1" vertex="1">
          <mxGeometry x="530" y="20" width="78" height="78" as="geometry" />
        </mxCell>
        <mxCell id="mXFN20k_gTlfW2L4US2_-14" style="edgeStyle=orthogonalEdgeStyle;rounded=0;orthogonalLoop=1;jettySize=auto;html=1;exitX=0.25;exitY=0;exitDx=0;exitDy=0;exitPerimeter=0;" parent="1" source="S3vcfllFPhW6Z8eUjY84-10" target="S3vcfllFPhW6Z8eUjY84-25" edge="1">
          <mxGeometry relative="1" as="geometry" />
        </mxCell>
        <mxCell id="mXFN20k_gTlfW2L4US2_-15" style="edgeStyle=orthogonalEdgeStyle;rounded=0;orthogonalLoop=1;jettySize=auto;html=1;exitX=0.75;exitY=0;exitDx=0;exitDy=0;exitPerimeter=0;" parent="1" source="S3vcfllFPhW6Z8eUjY84-10" target="mXFN20k_gTlfW2L4US2_-9" edge="1">
          <mxGeometry relative="1" as="geometry" />
        </mxCell>
        <mxCell id="mXFN20k_gTlfW2L4US2_-17" style="edgeStyle=orthogonalEdgeStyle;rounded=0;orthogonalLoop=1;jettySize=auto;html=1;exitX=0.5;exitY=0;exitDx=0;exitDy=0;exitPerimeter=0;" parent="1" source="S3vcfllFPhW6Z8eUjY84-10" target="mXFN20k_gTlfW2L4US2_-11" edge="1">
          <mxGeometry relative="1" as="geometry" />
        </mxCell>
        <mxCell id="mXFN20k_gTlfW2L4US2_-18" style="edgeStyle=orthogonalEdgeStyle;rounded=0;orthogonalLoop=1;jettySize=auto;html=1;exitX=1;exitY=0.5;exitDx=0;exitDy=0;exitPerimeter=0;startArrow=classic;startFill=1;dashed=1;" parent="1" source="S3vcfllFPhW6Z8eUjY84-10" target="mXFN20k_gTlfW2L4US2_-12" edge="1">
          <mxGeometry relative="1" as="geometry" />
        </mxCell>
        <mxCell id="S3vcfllFPhW6Z8eUjY84-10" value="&lt;span style=&quot;color: rgb(0 , 0 , 0) ; font-size: 16px&quot;&gt;Batch&lt;/span&gt;" style="sketch=0;points=[[0,0,0],[0.25,0,0],[0.5,0,0],[0.75,0,0],[1,0,0],[0,1,0],[0.25,1,0],[0.5,1,0],[0.75,1,0],[1,1,0],[0,0.25,0],[0,0.5,0],[0,0.75,0],[1,0.25,0],[1,0.5,0],[1,0.75,0]];outlineConnect=0;fontColor=#232F3E;gradientColor=#F78E04;gradientDirection=north;fillColor=#D05C17;strokeColor=#ffffff;dashed=0;verticalLabelPosition=bottom;verticalAlign=top;align=center;html=1;fontSize=12;fontStyle=0;aspect=fixed;shape=mxgraph.aws4.resourceIcon;resIcon=mxgraph.aws4.batch;" parent="1" vertex="1">
          <mxGeometry x="580" y="440" width="78" height="78" as="geometry" />
        </mxCell>
        <mxCell id="S3vcfllFPhW6Z8eUjY84-11" value="WSLH" style="points=[[0,0],[0.25,0],[0.5,0],[0.75,0],[1,0],[1,0.25],[1,0.5],[1,0.75],[1,1],[0.75,1],[0.5,1],[0.25,1],[0,1],[0,0.75],[0,0.5],[0,0.25]];outlineConnect=0;gradientColor=none;html=1;whiteSpace=wrap;fontSize=12;fontStyle=0;shape=mxgraph.aws4.group;grIcon=mxgraph.aws4.group_corporate_data_center;strokeColor=#5A6C86;fillColor=default;verticalAlign=top;align=left;spacingLeft=30;fontColor=#5A6C86;dashed=0;labelBackgroundColor=none;" parent="1" vertex="1">
          <mxGeometry x="530" y="-440" width="590" height="240" as="geometry" />
        </mxCell>
        <mxCell id="S3vcfllFPhW6Z8eUjY84-14" value="" style="shape=image;verticalLabelPosition=bottom;labelBackgroundColor=#ffffff;verticalAlign=top;aspect=fixed;imageAspect=0;image=data:image/png,iVBORw0KGgoAAAANSUhEUgAAAT8AAABACAYAAABspXALAAAKQWlDQ1BJQ0MgUHJvZmlsZQAASA2dlndUU9kWh8+9N73QEiIgJfQaegkg0jtIFQRRiUmAUAKGhCZ2RAVGFBEpVmRUwAFHhyJjRRQLg4Ji1wnyEFDGwVFEReXdjGsJ7601896a/cdZ39nnt9fZZ+9917oAUPyCBMJ0WAGANKFYFO7rwVwSE8vE9wIYEAEOWAHA4WZmBEf4RALU/L09mZmoSMaz9u4ugGS72yy/UCZz1v9/kSI3QyQGAApF1TY8fiYX5QKUU7PFGTL/BMr0lSkyhjEyFqEJoqwi48SvbPan5iu7yZiXJuShGlnOGbw0noy7UN6aJeGjjAShXJgl4GejfAdlvVRJmgDl9yjT0/icTAAwFJlfzOcmoWyJMkUUGe6J8gIACJTEObxyDov5OWieAHimZ+SKBIlJYqYR15hp5ejIZvrxs1P5YjErlMNN4Yh4TM/0tAyOMBeAr2+WRQElWW2ZaJHtrRzt7VnW5mj5v9nfHn5T/T3IevtV8Sbsz55BjJ5Z32zsrC+9FgD2JFqbHbO+lVUAtG0GQOXhrE/vIADyBQC03pzzHoZsXpLE4gwnC4vs7GxzAZ9rLivoN/ufgm/Kv4Y595nL7vtWO6YXP4EjSRUzZUXlpqemS0TMzAwOl89k/fcQ/+PAOWnNycMsnJ/AF/GF6FVR6JQJhIlou4U8gViQLmQKhH/V4X8YNicHGX6daxRodV8AfYU5ULhJB8hvPQBDIwMkbj96An3rWxAxCsi+vGitka9zjzJ6/uf6Hwtcim7hTEEiU+b2DI9kciWiLBmj34RswQISkAd0oAo0gS4wAixgDRyAM3AD3iAAhIBIEAOWAy5IAmlABLJBPtgACkEx2AF2g2pwANSBetAEToI2cAZcBFfADXALDIBHQAqGwUswAd6BaQiC8BAVokGqkBakD5lC1hAbWgh5Q0FQOBQDxUOJkBCSQPnQJqgYKoOqoUNQPfQjdBq6CF2D+qAH0CA0Bv0BfYQRmALTYQ3YALaA2bA7HAhHwsvgRHgVnAcXwNvhSrgWPg63whfhG/AALIVfwpMIQMgIA9FGWAgb8URCkFgkAREha5EipAKpRZqQDqQbuY1IkXHkAwaHoWGYGBbGGeOHWYzhYlZh1mJKMNWYY5hWTBfmNmYQM4H5gqVi1bGmWCesP3YJNhGbjS3EVmCPYFuwl7ED2GHsOxwOx8AZ4hxwfrgYXDJuNa4Etw/XjLuA68MN4SbxeLwq3hTvgg/Bc/BifCG+Cn8cfx7fjx/GvyeQCVoEa4IPIZYgJGwkVBAaCOcI/YQRwjRRgahPdCKGEHnEXGIpsY7YQbxJHCZOkxRJhiQXUiQpmbSBVElqIl0mPSa9IZPJOmRHchhZQF5PriSfIF8lD5I/UJQoJhRPShxFQtlOOUq5QHlAeUOlUg2obtRYqpi6nVpPvUR9Sn0vR5Mzl/OX48mtk6uRa5Xrl3slT5TXl3eXXy6fJ18hf0r+pvy4AlHBQMFTgaOwVqFG4bTCPYVJRZqilWKIYppiiWKD4jXFUSW8koGStxJPqUDpsNIlpSEaQtOledK4tE20Otpl2jAdRzek+9OT6cX0H+i99AllJWVb5SjlHOUa5bPKUgbCMGD4M1IZpYyTjLuMj/M05rnP48/bNq9pXv+8KZX5Km4qfJUilWaVAZWPqkxVb9UU1Z2qbapP1DBqJmphatlq+9Uuq43Pp893ns+dXzT/5PyH6rC6iXq4+mr1w+o96pMamhq+GhkaVRqXNMY1GZpumsma5ZrnNMe0aFoLtQRa5VrntV4wlZnuzFRmJbOLOaGtru2nLdE+pN2rPa1jqLNYZ6NOs84TXZIuWzdBt1y3U3dCT0svWC9fr1HvoT5Rn62fpL9Hv1t/ysDQINpgi0GbwaihiqG/YZ5ho+FjI6qRq9Eqo1qjO8Y4Y7ZxivE+41smsImdSZJJjclNU9jU3lRgus+0zwxr5mgmNKs1u8eisNxZWaxG1qA5wzzIfKN5m/krCz2LWIudFt0WXyztLFMt6ywfWSlZBVhttOqw+sPaxJprXWN9x4Zq42Ozzqbd5rWtqS3fdr/tfTuaXbDdFrtOu8/2DvYi+yb7MQc9h3iHvQ732HR2KLuEfdUR6+jhuM7xjOMHJ3snsdNJp9+dWc4pzg3OowsMF/AX1C0YctFx4bgccpEuZC6MX3hwodRV25XjWuv6zE3Xjed2xG3E3dg92f24+ysPSw+RR4vHlKeT5xrPC16Il69XkVevt5L3Yu9q76c+Oj6JPo0+E752vqt9L/hh/QL9dvrd89fw5/rX+08EOASsCegKpARGBFYHPgsyCRIFdQTDwQHBu4IfL9JfJFzUFgJC/EN2hTwJNQxdFfpzGC4sNKwm7Hm4VXh+eHcELWJFREPEu0iPyNLIR4uNFksWd0bJR8VF1UdNRXtFl0VLl1gsWbPkRoxajCCmPRYfGxV7JHZyqffS3UuH4+ziCuPuLjNclrPs2nK15anLz66QX8FZcSoeGx8d3xD/iRPCqeVMrvRfuXflBNeTu4f7kufGK+eN8V34ZfyRBJeEsoTRRJfEXYljSa5JFUnjAk9BteB1sl/ygeSplJCUoykzqdGpzWmEtPi000IlYYqwK10zPSe9L8M0ozBDuspp1e5VE6JA0ZFMKHNZZruYjv5M9UiMJJslg1kLs2qy3mdHZZ/KUcwR5vTkmuRuyx3J88n7fjVmNXd1Z752/ob8wTXuaw6thdauXNu5Tnddwbrh9b7rj20gbUjZ8MtGy41lG99uit7UUaBRsL5gaLPv5sZCuUJR4b0tzlsObMVsFWzt3WazrWrblyJe0fViy+KK4k8l3JLr31l9V/ndzPaE7b2l9qX7d+B2CHfc3em681iZYlle2dCu4F2t5czyovK3u1fsvlZhW3FgD2mPZI+0MqiyvUqvakfVp+qk6oEaj5rmvep7t+2d2sfb17/fbX/TAY0DxQc+HhQcvH/I91BrrUFtxWHc4azDz+ui6rq/Z39ff0TtSPGRz0eFR6XHwo911TvU1zeoN5Q2wo2SxrHjccdv/eD1Q3sTq+lQM6O5+AQ4ITnx4sf4H++eDDzZeYp9qukn/Z/2ttBailqh1tzWibakNml7THvf6YDTnR3OHS0/m/989Iz2mZqzymdLz5HOFZybOZ93fvJCxoXxi4kXhzpXdD66tOTSna6wrt7LgZevXvG5cqnbvfv8VZerZ645XTt9nX297Yb9jdYeu56WX+x+aem172296XCz/ZbjrY6+BX3n+l37L972un3ljv+dGwOLBvruLr57/17cPel93v3RB6kPXj/Mejj9aP1j7OOiJwpPKp6qP6391fjXZqm99Oyg12DPs4hnj4a4Qy//lfmvT8MFz6nPK0a0RupHrUfPjPmM3Xqx9MXwy4yX0+OFvyn+tveV0auffnf7vWdiycTwa9HrmT9K3qi+OfrW9m3nZOjk03dp76anit6rvj/2gf2h+2P0x5Hp7E/4T5WfjT93fAn88ngmbWbm3/eE8/syOll+AAAACXBIWXMAAAsTAAALEwEAmpwYAAACLWlUWHRYTUw6Y29tLmFkb2JlLnhtcAAAAAAAPHg6eG1wbWV0YSB4bWxuczp4PSJhZG9iZTpuczptZXRhLyIgeDp4bXB0az0iWE1QIENvcmUgNS40LjAiPgogICA8cmRmOlJERiB4bWxuczpyZGY9Imh0dHA6Ly93d3cudzMub3JnLzE5OTkvMDIvMjItcmRmLXN5bnRheC1ucyMiPgogICAgICA8cmRmOkRlc2NyaXB0aW9uIHJkZjphYm91dD0iIgogICAgICAgICAgICB4bWxuczp4bXA9Imh0dHA6Ly9ucy5hZG9iZS5jb20veGFwLzEuMC8iCiAgICAgICAgICAgIHhtbG5zOnRpZmY9Imh0dHA6Ly9ucy5hZG9iZS5jb20vdGlmZi8xLjAvIj4KICAgICAgICAgPHhtcDpDcmVhdG9yVG9vbD5BZG9iZSBJbWFnZVJlYWR5PC94bXA6Q3JlYXRvclRvb2w+CiAgICAgICAgIDx0aWZmOllSZXNvbHV0aW9uPjcyPC90aWZmOllSZXNvbHV0aW9uPgogICAgICAgICA8dGlmZjpPcmllbnRhdGlvbj4xPC90aWZmOk9yaWVudGF0aW9uPgogICAgICAgICA8dGlmZjpYUmVzb2x1dGlvbj43MjwvdGlmZjpYUmVzb2x1dGlvbj4KICAgICAgPC9yZGY6RGVzY3JpcHRpb24+CiAgIDwvcmRmOlJERj4KPC94OnhtcG1ldGE+CuJJMykAADrcSURBVHgB7X0JmBXVtW4NZ+iBZhJUQI0yNCoOUXCKIA0ZHRki5KkZVBqMyZc8TbwZrt8NjYk38d3cl0kTA5hoojeGVkCjxKiRFiWJUZ6JBpVmFBQElKFpuvsMVfX+f1et03XqVJ0eaOazzrdOVe299tpj/bX2ULs0rUSlEiiVQKkESiVQKoFSCZRKoFQCR0cJ6EdHNku5PIJLgG3YAPPoeIxDjuhOtsD0L1GpBFQJsFGUqFQCh2MJCOAR1DpLApBBebpTX0dkQ6AEoB2V0mHiXwK/w6SiSsnMlYAAlYAeQesscDV4KPh4sBBld4D/Cf4TuBVMNz+ABa/hXZS6Kl9UWcnz4JUAK7JEpRI4XEqAQEfri3QS+AbwJPBp4DJwFLXB4wzwWrBfhwBZH7gPB/tBEZcF1AiXZrCEKxAoOZRKoFQCR0oJOI4OSADzGGTP/cDklaAl9E2c7AITrISzOA9yxvPfguPJYJJfT8x10q7AkaCa8jiNozDdeE6r8RIwyXQPpf/DuQSk8g/nPJTSvj9LQNc9a4jGThhFuYfJdttNrLUkNPweTGuPRLCjHxMRBkhiJYoMxEJJ/BOhvq5jHAfKlegIKYES+B0hFblfsrFgmjlU69fL6JWM7A7azSm9306tZcVNc2ll7Q8isBHECD6LwJeCBfR6qv1K/hhPEM3pR9ArzRajEI4k6qnGcySVSSkvTp2h6XX28ESvkYZjP66lW9tUlzdQMrqm20ZCq9x7nH4zvP6keeECYvt6STAiAP0QTOAjyBII9wcxriD4STxR7uJfOh5mJVACv8Oswg5IcutXqhvd1PUKWH3D7BSMnrBb33E0szyuWbtS/VS6vHA9mEZ2ZWlx1YC/CiZ11GZpvZGlK8swBE+x7nhdolIJdNiQSkV0FJeApemW1prRnKxNACJ8tEMgp0HgApSJ6YbDbuj+IIIY6VvuQQFh2NgevQXcCHpkEsMzzeVgccNpiUol0PFTtFRGR3MJZE1dKwN26AAOAl879Emp2LoBFLQxC9zzJFbfOVA9wVMfBWAEPknDX3H+FHg1+D0wJ0l6gbeDSQKS7lXp/6gtgY66EEdtwZQyftBLQMDsMqSEs7C0PsOsPgE+LkeZBX4AHEXUWQK/qNI5ytxL4HeUVfhhlF3pSk/00ixgGJWFWnj8Fkw5AUk/0LEL7L/GZYmO5hIogd/RXPuHbt7FQuuNJJ7mJTMM/Aho7Aq/Ahbgo7gAJ89LVCqB0BKIGkMJFS45Hm0lgFUltJUc/mNqV67U0b1W/4YshO6x8hGgGwqNfPUsimRChGN8JFp8JetOFUXpr6MS6FnLzz8b6I/ZnRn0uxy8c6ZxTp3cXG46ZtdJyks3jq9mTMzjGmVxzTY4rVFIXOlCfytj9Ww7cq05AtsJ4ApwVL3Iw/v1wtQd9i7BIo8qg8M+owcrA91rtHzHs366NDw37dNGAUDq5Emcnx8ufvWvAZtWbwOCDkxl1iHu0911a9obkkaAnZ/q1IWu4Y0GdebmhTL5csoz5I/QWT/NUPpdIO1cuBBVB9TJ/yCQMkICpoHrwVY81eg0G5fgDTfbtgpndHVTd7J7MqZtxd9iulU4KUM6+IllXxfRPtrH6CQE64Fd12M9B7Yrt248BxxYxmyDnAjZBiYRMIJydKdseNuk78En5iMIdu7yova0BfPVE3linPn3cXt8/rN9jSssfwdSv8TFNsC8KAoWuLjnH+Um4Q1SrBFDbvTcWbGq6sEqgj2Nm/UV/Xba2vT6YEVqCmiK6cpPQdevCLikICDj5hyl9e6jVVqJlmxMpTOTqmp6Z/qP+OJ6PvFG7gioWTZBIFfhcLNrdfTNFXa+8oNwxQfBbMQrD6KwejkIySoS5U3wuxdMIAw+qFmubL97wdzSah24q0Sd1H0l+HGw6MRpjsSNN85E8PNgAlFhm4ZjF0iAh/qjgFneZIl6dVBAJe+m7mQaGD/j7ix1VV70djZcZ+VEb3ePuXh4Ek1iNQVukjOfuLlfNp0eghI/TdP1U1GCw1CMx+m61gf2QRznXqHSWtBh5enbsRjsbTTVlbau/bUt1futHNgokJoNkOihcSOmmeRZGac9OmtQxrTG6I4xFjh0BnwGOI7TzzB0vLCKtJEcbTf8diHRa5DgFYbjvPDm1Pv+pfz4RzALlIHy84Dv5EXX9y3TYsMyurVt7T8+9K7ErWQ6A6BKcD/9SR2GPGhqltbFNu18r7+u21W4/frEDFtv3bb7eKN3sqmsV8VeK+2Yjqm75RmaPPdNM91ybN2xHPelM7lf3QA6TEZLt2KOY7+/ZsoDa31qpBFyDd7HwFzOIiBAcNkJ/gz4RjCBJszyoQ6C321grulj5MEbmunng+05MGUlXpwqQD0Y4BcEz0FIC9smQZwTPMeBOdnDLj+pDdwE3gJeBeb+hG+A3wELBXWKe9hRyoDxXAIOlpmEoTsfEO+D/yyOXThKPFyreSqYy5HoJkT9rPc14JfBIo/TThPDjAcfD2aD9OvHpSKJ50VcbQKreMIEQ62yUxfPOhOgMRG4xsJCRTkjjPKEGx4jQjqQz7Gk7aoIc3+6iTWyNuN3NLsNbc12Xsf4+RJDM3711tR5jUowCmByWjpx4tMxYtHMDyPEV3THudIojw3UDNwDTC3SwftUjd97uVcjWkijIgxk2S0Z3hDLkNwHGrO7H1LA59PtCmoawaNhQl125OO1k4yK5GKrOfUewqwDJr6oGfaTq1NNy3OgeWBBkF14txvu62oOX3DDQCNh4mGlX4ByORv5qEZBoGup99NjRh+M4EnWWFUhFHRkvXtiPLJYvXp2j3DDtdmnXMvubHl89dT7Jql3hN0HHSNjg0EatDfBvshx1U6MVGJpd+3aGffgY37XgSVeauCNfSDBj/kgM9+M+yrwteCxYAJRV4iLtnkzPwT+A1iARfTDKZKkDIZBYjW4o/Il8LKetnqywYYA56K0DL7jikgQyEd5/kxLZ/SLXH/IrwfzYdERsQ28BlYPiqKZrn7i5qF6Jn21o+uXIzkfMSoSMRYTXnfSnDTaDHBCNXjgHp2hNEqf+NEfg+hQEzM17AjSAo9fpLXs9zZMuX9XTV1NrKGugY2xyzQN4FIP62zUghn90wn9TtiRs8xeScNuU69nsbHRTqNNyjQE0wlXwAHGMhEO7zNwoB9tE1IAwpcNXb/lrcnz/gKLDt3GOlcPlAj4jXhsxuVmWfIJxmUkEY5vPaSyLKdXcPFAPBO7f+X0n/MGjLYilec+/jFlHHv0WanDFt9womHHLkeKPgHf8/S4eQKATlMPJDysWJfuAwFHt3zyS4c1h0JzCQWiSs8FPT7s+CBxLEuzsxZwjQkAARGpX7FuZFEPcTz06hsnz5seAn4jEALlpBovLTylAkeSis09LfrPBEoi/YJ0Y0PnTXsReD1YbnycHlDw88d7OeKeAx7NRHgkeZCjvxwoQncpDzl6QTVO+NwBfsRzUDe3eEYcJT0M82kwrSaGC5IA9TXweBhM0O7MPco0Ms20yAhufP87WL/0Z5y0yC8Es7fVmbRDLCd3Bc4J/kHdlCFJ+p/EOWUlXSojFMij6oWzxqIrdLOWyUzWK5MVAATNxjuedksar3viynHQspUSHtVJnoIOLnAjIKFZByBRYVYmv57Y03bliMWzPt8wee5LkV3MIjoF+EY+VntW2nYeiVUmR1h70xosMVYSK5kcfnsoD/rJjasEHas1gx46ApbHz7NT2eXVi2Z8pXFK3d0YMyNEMPesOJcsbzLUdrIIx2AsE86EjtFMfUxmb/rWEQtrf9Ka3T3vnen1rS6I9mBXH9HhwWE26HxwYHwVD4LqRJ9PIoWfBV9mVMb70LpFPgB2luOkgVi4dJPJpKrhCTdfTDxzpnKHPwIZe74EdJtgaWlWK8o2hfaQAeDBjbr5MDPAPCrQg6XNcPDjw4QWoSoXqg8h8WM9yXmIWKQTw4SFYx5JYX6uz4H5lxu6HNH9GDzLi5bpI0sb7Uo6/WHPhI568IPgL4H3gCVOnIYS46SOhWCCH+XpFiTKkMaDCX6qZdChA6IuAtJYMIGPehhHkChTCR4NJvh1pQwgrnb64ZHpCtMv6V1EIRBlFHi3Z9YbK6teWPt9vcx4Qa9MXOsAnOy9acsi6BEdGNBxiPzuu5446SYxATFYHI61py0DK6saE4ovjlw441O0WmhRdVqvZ/ENf2TGOXjL/nmzLDECoIenmEqvm9ZOK/MEAQ2oAabRBOgDMZDhiuTPqhfX/juqxlHWVbhOFc4Liy5+xgIIW3rCHGr2SvykIt73FZVHdkX5EGFXeF/J1eHQYh6+5CvJkYtqZ1TH+7wMEHrSqExcAyDqw4cWHwROhqYacsB3dd0nOOPHOZPtkSo2uNByi7vJy7aktNbNO7Tmde9puxvf1Zo3btdSO/ZoVjqjgM+IxzThdvCDSqr1qZYojrIjC5E3+DHg58AEPt5LdJN6aL8P4dhJ8oelLoLLZ8EvgE8C082tQJyEEP1JT4E3g6lPgAKnORIdH4NLGZjh2ttLTizyhBY3iekrRhM9z47kKMb4mQ6+tz0OTAorQ+pi+t8HPw0m5fS3B2B3DoTn8znKSmhJpwhOcMLb7QS9LmWYqjpDzAS7RFl0xWLodD4BgBnHcbSapTUdAyAB2+vqGqb+CCytvgAcmu+cdClWQcwXC4EcVuFwzlEMOGoDQBzov7N68YxaxklrMycRfaLKDpYWw2f1pHm6loz9ceTCmfeesODW8i4DvT8e5p1pYBcXR6bLSLeu0Mvj89H1PsfJZB3Gia6pqkMEjX4QCODRggOQkTJNLQC7rdqOV9do77+6Wmtat1lr2wmDArJmMq7hIaOZkM2BHccLOa4KHYoBemqq5OgGP95fvEk5cbEEzK4d2yepM+3Hlez4n7oYF3VzXOuPYOlm0j2M2C7otwP8jCeQAwbv2n8YjosxnkOUTpHnvcd8M13jPceoMHKfXuDJMw3i5gUtOIg/xwlp9ZLC9Mu93QD/TZ5MLo++AK4c7JEWZTTZauZMIkG4ANECcsEDXWFlRrLgYQro6M+qjPOa5iUKwbu7cBFBMYwdZWEhEWQfGr7khoENE9CF86zRiDA550xcvxvjSkNzwJfzKThRaWFXDHEZirFpHaRYIKysKGI5Oew24unwi1MX1Y7m+OI7rR+4DdgkwLjlF6GAlnIM44AWrC9H7xW/qSK+56Xhj95wLoFegVhxsM5TqyxjWo9IA9JSUx3vvdwoS8yDpTYKlqqFdCIvyBfiRMDoOhTQg4VHS48WXvOaLdq25W9oW5b90/ng9bVOalezY5iGE6tIOrHyhGMk8IyKGQ7k8xlveQDswDjCqiWzzFD1HGelhRhVQHSXBsk64LnUR1QYiOSRyEtY/5GCvO6srjzF+3ghcf4aes4H857gjHRUnTCdvGckHE5zRDf6USaKqJtxnA7+jSdE+aj45P5n15ck1+6V+8+wjJc03j1E6vO8c4eTcCbgFJUGcT8FspykJIWlw/Vx/yXMJzzHqHtX5DgkQJJrdVEYCbtExAMX3JRQ+B+ad9zkGwAmJ0LM3jgBGxXxmFkJFON1VTKGMTMT1gEjZSVEJRLV7cRgIWXQVTvRbDPvUnH6Ft4WpIFWDwBg+OIZV+rJ2DXo1lE/Kz+M1KJqpNPUk3H0sJ29iGsNuBGg24w8GEwnAiq5MAVww63tZCHHxYE/o8wJ5a+r/JgcvaTVwwmgYnn0LGgMJWTR1T/T0M3lIxbPuFZZb1TYEdgTIJFvAubwB6/rPWJR7c+dmLHUSMYvIOjRwoQW5sMFZeosJJVGpDeLcFlotNq2NdkfvLza2fTkSwC9V7WWbTs0gJye7Fulx6vKdROz+pDVjQSYR8V4/UO54QjZHMdjbBc661zVO670OJuZGi4pTI3b0Ht5HmKdMgDzwHYTBgSeeO4g8jz62TVj3S2t6H4gieln2meAp4PZVqLaJ+XozzRGPbBYFlI+lI0qF8ZBsOLg/v8Gk6Lyrtov/J8FrwPLfYrTPJLwn/JcqZ+yUSTyEyCQALPNRcnTnemgnHSRo2QhkpfGS+gACisLxsl0sEu/FEzKk5PG4Xp15p+gCNzTbPSJs847sGS24Jrr+HbgCOXOFjer+vG4TkL6BE13TsXNPgDXnDiRRBXGpmsxAAOz93lYNPe8NWX+Co3rAIMLlQkCOrp7OJqL9W+zm86ICxUqFxtWisHOu9OSedTS7QdgtKxIoSNqZBJOPJmtxCTFhVDxVYDgeM7YQjutlcIKgCVFkAHAX8SxtYYJ8+9jDLZmtOoY/Ie7atzQwfDMZxQIxSxM+hgxvUw3zYdGLK49ZbU+/06gH9+CMAjqKuX+P4I984wJDUyefBxFeS8eFENZXt5moxFxqTlYTt6gzAB5eFZpmO21MV7XsvkDrWnVO9qeDe/iOqvFKiu05DF9CXyaGYvvRLlm0ZVFbXPiwmOlhgmDOvWPP5Y8Y0BT4xIX1QqUoxLIWrvbjoH9x6+thVEbHF8Gc6mC3FRUTQuGyz8GgxkD3cKIN84acAoclGE43lSc7aX/gSKmg+niON8dXqTBtHnOubyx/taCHwcvA68Cs2xIHNsaDv4IeCp4JJgUdS/xpif9B5hW3SYw3YLtiuXDeFvAfwATLOkWJEn7aHicAl4fFIi4FjCLSmcw2MVwuBscTKdfjmmh/0ngsZ5HWNuXfPwJMtvBBfnvKvjZGBMysMzlH1gVcq2TtDCQ2KtpzWU/i2xYo385K94yQB9gp63zYDndCiuthstAQkmBmpalJYnxqhsgsyL3NoI/AJdzAASqH6u9VEuYF9mtaWRUDykApNIE1Fk2VtM4sxqn3veAX413vhtHNpCFWBt4F9bBfQOAHiLmOfHe5vIOTfv6yUuvf2jDhPvb0jszL8b7OKcDIyaiWq5Bd/piWDsmxwnREWSupDHm9KIGTeixNcsyMEb3veEPf2HImv/1wJcU8AUAkOOfDRPqVaFVL6qdDTuzjstV1HpEHY0Xw3A5xe0nqi+OGVgT+rGuyFGztJmm1HvZptYtO1e+vaXpjVXvYuBuk9m7z9ZEr/KtGDfdBbVbkWA9ltT36PEyJ5HEmh8Oc5MSCdXqgI0g/AHqWRJGImEZWBGtbncOb3FOU6i1RbMwxFCWMbicAdVEaFQkDfwdXH0czEYtfnyI7ATfBv4vMCsk2FYpyzDNYAICAZApFb04VUQZurW6lwX+nnOPHljfTPNNYII36y6Yfjip/DJ9pDvAPwTv4UUIvQW3J8DfBX8V/H0w42Hegu2L14yT4MvZ32+DJR6chtJiuBL82JakbEWQYZkf1uxHwfPBlGMcQRLZSniM8zyD6QuGEX/Kc3yUYEw90h5wmiPJBx8EVeCw/FNYdNbzAiTh3Cv8h1VIzjPkhGM6uJ/1naunzHsz58/bG4BUM3C73rB9oEqwnK+Yrr7qtQWyfKI9PnLxzP8CAN4GAAxPtIO3CtTYmnPVqAVf+pZaH0f9yrjzYuTbCmpmX/s8ZySdDLZZd2ehc0lSJzCP1MJd2/py4xQAH60n0rQFiFvKwtFqGuaoriTy9E1MRvSBBXcTLTxIuvIqkPcHIGPaYcmeFt+pXQbXhRuuvz8FdSwP8j2YtLkMD4jb9LL4BFSfDjDFjHFotw8VhBnv5hR8jZs/NG96/O2ZC2b6AZDje6qbu+S63kaq/CE8GK4A2GOdJRbXhdcfR/JsWHgEPa6l3GVn0s/CcFuS2dX66taXXtneem8jgYUNTJGFyTAqI4mp4V4dkH+2AwKYn6ThCmD5/YLnbG9N4LTHQf8Dfc2GxeLkjTnDi1zy413mDtIIa+Fyn+fKe5JlEkbUwzLhsNAG8MNgurEMRBdOFUmc1+CKD5AdYLoFdcv1cvi9Bj4LHKaPbqSJYIKfhKObn5gOyg4Hj/Q8JC3eZeSBD4ox4GVghpFmidMCki440xHUL25r4Md8kQrS21Xwgw7kC7equilr6iy1Q4peB8d6q4FReNQgJwQu7KJSM14zeBOvmjzv3wAOFwA8xrnr/YIAA9OAuGgYJ2bN1NlQs9zdhYVxgDyriK+twXCa6AFlMPOUtDgeCaD4I4BvPtLMSnGXmOS1E11r4BOMwIgJhGRl29dTLWUTYb2N8MbQCnVjESRAlSvYPgOdC1X61AMA7z5DR+Pk+UvgvgRjctdA5k68CXOK3ZJC+pXVk6eP69/sbJbr5iwnbtQO/vFV+uZbHq8lAI5+ZVa8YUxd5rRHbhqRTVkLAXxnwJpkg6COQmBmY9Fh62LMFaDHIYn5sId/03jV/PWQzyeW40pu+CAPRniPUo1W01ZOw8Os3hq6YFafRMK5EBPGBQ1HlGEg1IxlrX+snH4/3m6BzjniEzj6FocHfHjJuvET2yXBLCyPfjk5l3ZM+ai0uu1HQuy/I+uGdTQBPBTM9OTVOa5JlGF654Hv886ZxjBrCs6KRBf1/R58IfgWMN2DZUUZun8ITMua8sFyhpOqc4blMMMisIAfTvNI9E+Ea38wwZT6guUqcYyHH0ny6V6F/zMM8816HAdeBhY9OM0R3aiPM9mUIzGfQZI0sSvPByPTznB5JI0mz7HDC1hhDTUoWGWN1VFcIisM6so4DagIdoH5fVfdsn+ILt84hOcsaBhZ7Ko5duY8eC6vGd9gMLwS9CZBsnFntBGLDXRSGF9zF1UE9GAhNrp6WI/9c3rUzJlgFn17BKDlWVl7Ryyc+X+Bbb/w+nEBvbiEUgAj3cfylbE10+u2A5UxVueOQ8pbFqunzP8d3oN+KtWS/qmeiH8WC4Qx6OkwoDQk982IjAXAzxocB9Ti+oxj7/xEetvtT39pxZi5meELb7zI0rILMelwPJeuIGx4nWGWHYCNSSMscWlu+5EWM7/feOVcDEuACHQyeeS+48uxRbc8lYD3Jzi4AOnDOWqgWu9d9pSpovULeucoeUwAaemdLdfC5XdqiIJlEEZ1YY45t2ArkGs55gQjTkSORzmPED1gzuwVkFjOwRuUaWQboPX9E7BQYZ2IT/vRL3M3nG8CsztKnUHAkLK4FH4EP7nGaSjxLYjbwWxjQX3UTbfjwOeDnwIzX8H6ljgugR9Jrt2r6H9J+zhPJKiXzhIfAXoomLqjyhZeajiLx1AKv5FCRffdccWWwSpDul6+3MmmNmI28CRYJ6GNg91ZuzU7LCpWAOgEdCvxGpnanCAHJp68rSfwmn4qu64sEVdmb8PspZZWJ+UbrrXheRdgyxKx36dTmW8DTE6KsP7wvTIsWUmYg1GAo6CtQe2WUoczBfYKAHSAKbvT7GJ+DmN1L+D4U+QriTyzHEy+LYFzBYA2XihxARATQjHt5l63nP/uoAlnvqDb+lMYJihHNzwc+BgffpyFxhjgG7Akb1796fuWQb9Ww9cFtRo7H+gE4ShRnGwNaL03JRMqhYUHCxjxxTASQquhRC74sG4JRnxwkwrLzQVEttkV4JWeTNjNDq9Q4j1DvWvBS8EEWoYP3s8S9wXw43goRzXoFgQkiftl+L0EvhjMOIL3lcTBLifBL0jUzXC0zCT/QXAKhpFrkWO3dwCYD+6wtFL+k/wDhaVR3F6FP/NColsBSYQFHvvFwbM23pp6zwcYmNqB/eAYTbAikGXc0cRE3X3Zu6EGwCWkxutwoeunKycFNuKZO+Jj2mgHjvbP16/4xU7VpeX4X0fE9KH7yzCYI30O4MwQhelzXbnODYacfq5SK9tEqQv157Cbr7qCsLwap8yfi8L+FMBuK4DZhH7L9t6JVe/FAtvwuhgmUyw9s6tFqzyu3/cAfE9jYqMcXXtpdO3a3SgIfDqX6th7Uw+XVbSdT+BTC7ARp7J0wyy8gJboyzieqyg3d8KGbSWfYQFjkgdNq+ira9HqjzwfaWTHI2t8KJJYQlH0oudRTCYqrADTX6ME4C7pGYTzoZ5cVFyi79Ei+iRsDWSSYLZLiQOnufMzcH4SmPeOhMFpUaIeynOShuBL8oelv8T3UeVb/I9dXj6Uma/Qezj4pCiurid8OTZGwOLC6I4Aias0SHPmuAXDcTsMCeI1rt5aqu0kjWOD1FRIXMvHzvAb9Bq9s5+xoq6OusJk80KP3rnZwOMY87nG81B+fZEw7hIaQ23Vk6cj78JdpqOrLv+UuQ0jH7txPLqmz2LpzQkAwiysvxjexnC7vwD8bGtaT/SucHpXD8HoHbbdyuLl2cInMKPg+KVBgLbaMt/FjinfoSO77vUEXf9YHj1KdCBLgDc+wSGqzUk7pOXXXZIbWrVxKBHw8utjPJTrAz4RTFmJG6ehxK7vHeBe4GD6BYzY7TwV/E+wxIHTnO4aXoCi2q7rW/gvD/kL4fUY2J9WiYdGz9leUEmPd6nSy3JgvI94jlJOIpM7Hnjwk+wQtKKSRZBTCzVg/lLOAxABwVgq0x8vqR6nrMP8ApKMqfBQs4oOHGcUj46OaI0sOGCTvkJNpvDpw5SGgSzyguV8HAPBDHJuBlpdBv4cpkEB4KS5q05dOPOjmb1tz8FuGmJlsllYfjFO8lhtaS1WntSqhg/RuUkA8ocSUrZVQJ0HfLCc7azzRYwt/hICSGWd3qAT+Ep0kEpAWvfJXvxB8JBkyU3LBbjdJbl7NkBBVDzULQBE8CtGYlU1Qugv4E+AJaw/HOUIMOz6CvjRn3lX9w6O4+gAkjS6Vx3/S7lcAlHqY1vm0Z+/sbjmg4VxiTxOFUl6mf5/eW6RaTjw4OfPhpe60AONPkOrGL1iVmyFBvBiOK9r6RjZ3sh6P663Q9GEgajBRbuYXK2tXjTz45DA4KBnRYZG5nPkAm4s3wa49oP9xzcg8G4v/gsJXVTO+eh94eUCtALq6ArPAeDUuY2n/PazH7VaU88h5GCAn2Wl0ya70b1HDFbvznI8EJZdWLyMFC+HAPgs64urJ9/3S9Wt53AAZ6FLdCiUALuZJLbaINGN9doKbg56duFadG9DGLnpiwU/1vOUcGGyBBOCGydHCH5hJOHHw/MuMONmfsg853KVD4NJYdYowzOOMOyR9n4O/E8EbwQLSbyXeg5yLf7+I60++jN+xhVKYQkIFTwojjCrqva4W+L748ecaUWsDBMafJMCd7zfL3cOsMOM8SXsFnYW9ySswj/0NjHJEN58IeiWfHjUoifsSAD0ZpVXDbpnysf0THY50tcPb1BYVcMGm9gXUG0bFZ4tALiBJTYASc2yb24HPn4TJbd4OCzaktuBLQF2M6OITYcNh0swyCS3ObnnXf1PIcAuMMfKRHeYDk4ikIrFJX7PQY46+WAnoPktLAG0j8B9CPjdgD+BayA4Ki10nwf+PLgyIMdyoX85mF1fgh/jphvTwbHU88Gk4M1HGaaND5UlYBLdIsmfqUihg+nB74AE49dtbDSvslXg1S4KKwyzxTa3cuKbEF1hLwxfn9svpCZC8NbGli8vehO7p0yChbmn94ghZqwigWkQPKjC8Rw5AgH4MEb4lVWT5t3rWnwH8GNQ+6U0jkilkdaGL7cErbTvurunAn4Mv68tVoBuA3Q9S4WgoE7edJQjwF8MJtFNbsZLlIsr452qg+ghqN4DXud5irt3mbPUasQBR9H9YZzTqmaYIHZJmS+F32owwwR1w6mdggrafQ7hM3Q3w+EhmGZ3lhLdVrxd0RV2TXJ5wgW19sj16MZqVaH9zz5tLbq622O9ymDxAdKjc8YttbhH4DewaPtuteUX1iaiiotWcI8ktqSkqyUgN2uxcLz3OiNXTAf9qKMn26qkSWZ95dqfDoIfieN+JMoI+NBiCyPxfw2eK8Gve0LB9iuYxOU5CbCEo/jl/ANJ/O6V+y/p5EQJiXqCupWH/ElEcn1YHGH9dHIAT4mxoHqc0clEvxhYxamQrhAXHGM5Dbu/3BrLsdtewgJmbMeFYUYXrEO14b0Nbc/qzdr6+qUXA8h1d8uvgqdfaNiS4yFZAmyTXWs70dkIA4OgtIBD0D14LWl6Dh7vgIkRQf2CG7T8eoM5MUEaCnaXfhVaZhK/WJRPqxCFDwCR44zuME+GAMghunHedfDANPMBwLdOuMSFFEyz6+r7l0z4nA79UwdfGXMNJKmn8DRjvM/dtw87mWBBcs9yzIhj8TFar1MWHnuhq7f+Tu3Dhx2dp6F2GrDm7wS1/14U8CGL3MSgZfP7xo7X1tplg46ZVPXV8+Yr7XWoYIJpiQ61EpAbOCxd4sfxroowgS66sf1xjI0kut2r/H+/BZXvk39F0GCb4kTKc55XEEikzVXDn8tehAh8XCJD+WBaxDp9xhPm+kSOeVKX/0ZmOIan/FiwEMHwDO9C4hc/yRvTuwUc1ClyecdDe8IjL6ntF3jvDevjVPkGC7hdCD6Q2YoqwOasqjDa/XrmDFs1tR4D/TTj3a2o3CU5hdphINY01Jj13JkFVtvIx2behYmLf2PiseaPFScNIz8se8HYLTm1fbe2682NWqKqkptSOXpl7Ma+3xq7c9cPXrxNvb3hvZecH7h0dRBLYLsXd3T7dAf7CYCkYnKuRPQ/VqJ3CkTf81R0Ji6R+R3CfB4c1j6l3X4S/i96umWG2A9m9BJZrjMkkxrBXCozDixgh1NFvCaAEfzmKRf3XWmmQ3R5zuogYPiw5yjp98sUnB9e4OetpdMts8m27WYs9+iF5S4s6EBmgTDYeFNLZefE0onf2ma2qi2mFgsXFEB3HQwszUs4tpkpT+5VOsLfpNBh7Rn12IevQWvI8gNL2uKZ9+rYDxATMAwWrHRfcpAHWK5pbB3ftOZdLV5Zhk27sL4FY3zs9mMm++t4B9jAO8BfU5uh4lU2rZtfvvNFWjrtmRLY6qkJtEvlSje2WVps7DJ2l0QPZ0AFnMLiE/205EjFZFwJt13y/C/gdeChYAEknObRBO+KWDImz6f9QsBwGZy4vIdjeZzsWQom+AVJwOwj8ODEym7wpzyhYPqpm/KcdZYuNdPaIR1e4DfHzU/KdHbHbf19WE+9sB8eMx8oELwYZhomlsT09z4ZuS/rqTosRC9+qWDKu9/NxYQEt7vn4uam4+xvYG+U2/EObjmAj08vVphUMsO4xAkM1+LTMzubneYNW3V+L4NjftxODCv8+F6H2i7eqIrfOvinVx3fb0fy+pV19WlvCQ11+9MimkvH/V8CUu5rvagC7TKXAGmzw+AiVlPOs5MnonuEJy86/cHpJsC40e/RwbmEY7eUEwi3goPgJ233PPidBCagsWtKEj/3qv1awEncOe73HbCkUdwl/HA4DAZTN7vUYcT2Thx7HEyQpC66dUiHF/jV1bFStPWT5m/F4uV3sEnAyXgftvDFUgKIahqOWhOUe8G/w+LohkD+Vk0Cempcj9qwQ8wVe3T7DrMicY6DXaKxazQwuaCyvYiBevz6Bbq6md0tO1q27exvlifVa3RqkBPgRwAk+sHq5Zo/y+wdv6a5wj71pAev+yyW0LhdilI3uBsV2aNB3oG2neB+4ChQYoTngB/gSTdIwG+0F1ZAwK9K4n4fjps8j05ZRZBV9xqOnPUl+AWxgvEzTgLTRd45QSsIktRDd5YHx/lIAk7/wvlqMAE8GI4yBDJafxzHY1kGZeCUu5cW8aIrFMxQV8IeDFn3c4+wpjDhsRIA5x8QbU8PYIGvpsE+uqj6D18c0nDlve9qdTXh28O3h+reWR2CEWqno4LrUalcfgIa+diMi2np4Yttl3Jyhp8AhSChK/iUozgJy1bwqaAkdrPJ2D9o2rDhp8mq/ksBmiO5WSvwDh/G5VbyHgBirTNQ0MR11uhffo6Wtv6Oz45+s3Hq/HtUGri3HilqHFJ5dvTHrjnatvcoiZLGZ4vlRokSOVrcpRw2I8McCx4P5g0bVee8sQVEeJTwOC1KlM16ErS8SHQLkuhbCw8ySdzcq+h/kfs7RPgOMkGWbTssL3zrgvkkSTj3yg1DnFkGZrkwnQJiu3FO/QS/YDi5roGfO7SEkwCJHoLo856fpCMgWnjp3iCF7oe8C74muZzbD6AkwyodW07ZFr5xMRALgq9lZkadvrIngV5Xs6wcZ2P8tDQJfHjCDfzuxy/D9lXPAH9fxLd+LwUIYzWLTGpELuLLworlqyhcx/eVxqvmfvv921/YYvaqvMyMxbbF+1aa+BB7FqzhK2rgMs3kkdfl+EiUbmQBkpVGr8TdiPtZfAD+AgV6BD4UkZpl7gDAWEZBimFfe7XukPkrQviAE8evSuTewAQHlhdvalJY2cl9R+CqoRAoDFRcn8J/Cc+ezSWed7Hwy3wyYekpjKE9L3wCPukJBMNKOrj+7ipPRty8y9z9KeAk5SP37Z88QbmWcJKfiXD4jOcY1C1A9wT802Dej8E0ekELD0FlhRKHmovawh4tJaEtA1Dswdge8xCWYV1Zf7p2Oz74c9rK6fVprq9Ti4NdIAgWdlhOKYNbHz1rdiX5LWF3aYm7Gag7weD0++bYk7TJQ24prz3z71UjBj2Jz2h+jGsA3Y+9q8qXigzEoSZrLPVFuLT1LmZyJ3IBM+MYtWBaYuON/7MOuzdfhi3pdwEAYwC6LMf/uF0XNz7gR4W8RdH89KdN6xLyH8WWNn9Dnh/EDjJjmHqOO/LIfHBcUOWlWBmoiSU8svEZU8xGw8IAaIcDILve6KmrMR+tZuCo8DJlmbH8jg6StsgxKFLYQ5flxIcl6RvuQVlyYbKed+7AcpSw3/Rc5Ton5J3I/R0cawvKRV1LXtj1ZRxBcGE+KDMAfIx37m8D9JN6/zPOSQJYons53JrBwftYdA+GH1+zCxLDMz3UJ11e0RmUDb3uTGGHBjxojpxVxU38pq6/DSvnOb0sNsnh1u7uN2r9yTLQXbTR7eyDL6s9BTCoXT11/jMNfgkCALbYz+1yPA2vivlJbnjXYPMaWIN2woJp5akNu0ZmP2i5wEpnLt27efvE8kEDqgaNPxuzsuV2dk8bR+5gNuUq3q9VzvlltBi288eHjjJL4tnsjJVT739PJi1W4knmna8Y8eTMCcjL43jD40QAPrs7YfWmGrra9BSbMWAr++uw8/N1KKMl6Br/j5XKPr0GX9lraO8uSTrYfNsbLPM8x/VKJLM7M+nYFnyM6URsv8WG1S6XCw1nR5uAy/9Ur+0R6GbjiptQsDypL3wmPKfhCDuRG/BvyNerYI7rse0ICOBUEa/Z3jiL+d/gr4NZtyzjoCycFFHea4dq26mpuKZbmLzEye73UjApv327bsX+JS/UwfG6seBgfEyvyAXbB93pxvBvgUkiK8d1cGO3ejy4O7oZVqxsKRs4dUxhN1HHoQ62RP103ugc93sQ5skkFKc84fJThoXDTgrvwmFHZsN2ngYQPAFb69eJbPYv6psTCtzqpBLyw3pXnKndXbn3OCzHGwngOQOTFudm1jddZDdnhjrYhyW1t0Ur699bG3D+qRaXo6CbjZXVwTbgU803QxAvLDR+oS6Nb4x8C9bejyjhgR1vAEUEE7UN1uVz/zFyQe1420k/YVQmT+d7yngAsMEXRsTX+KDf2pvmxyTxTeX4ZSijy5D/7SMX1z6PfUeX4f2YlVbWen2N1rxDjQ+qcvAi5YGTOHV4B+ny+99DmW1Al1zAzyekTgnceGbrH4NcXUtm913vTK9rZVg/Vf/hprOxMvO4NVPmPu13P0LP2Z5YN6zHe8DzwVEk1s7XIMBxr++A/wHOtQGcB+k0OMwBT/M8CtuA6yHt+te4ZNeVaeoSOECeOogRTA+tq7HgMIpKA8GMeWwAs1vqT4OUE9P0Ing8OIyidDM86RH3kEund9nxgRk7/Miz0M5K7170mtPn/8EiOhcbeobPohIAuVU+Om7oXl6BscArMrq2s3rRjEb05jajevFKjLMbxg8/SDQIfbgkShtmDj6ibjvH7sq0DbbTzjFaxqrU8T1uywB6YaUKLD6t7f3dVtXggVrfsz5kmMmEiXgAR1F1pZ5qtERj6Krjs5P4oppufO2tyXNfVxWACYqwvfh8u8CsP+mhm8eWaamHzF5ll1rYXh6REQQL6xCZQSrY0Ph5SzYubogwEG+kXA3Hq/mpT3Sld1drfbZpi2o34YGwE2WQAGg3ZQzttvX6/K0CxFD0N5QdvrfCF/mkvVGzRwROWOLQPbtC63Nj9eKZr8FpEyRhjetDMOt0AnYkHIMcc1zmacoqXRL+yDzypif9BnwLmG8msB5UneDoJzYYyl8J5sTBMo/X49gCJmHWSa21uxjHCeAkmGEYlhwkxsV20QgW8JU0BWU7upZwiyF4J5jju2wIYfHCOY8kv8/mubZfSIPiuN/tYJFvlwg/YzjK8iZguyJJOt2rTvwX3jidCHTQRXjDYQyJY1kjF9begWpYjJpwx6X8Xbj2hKoPJaFLKEDQDzbRBZw5hdXSXo3uBqrqWseNrvYEzCIybm9FwGvFfvLYcDSzp9XAud7/jFPMXicfR9gssg0VKgVb72HBcgwLkw2rOb0BW7fMxqwsbwxYezX4NGUDxuTqIitPdSeR343TsSU/vtdAKwsAMhtdZn5EnU9lPl3JYaQaFDdGxfCAxMG9A/F1cr0v0l6tmrECZJittl4HJbJIF5/A0xaabZl/A2iFtxWvvDG+ijwaJyKfJ7JM1TOAjxCUG/KNh4UlN3JYGo80N7k5aXHRqqPFy3qIAg3WnQDWRJyTi1EUkDIM45C28O8453ga42aY7hDbDIFuHfjPYE5u0E21KxyjSPLKt13+4glJ+5MwlCHRAKD+oWDKSPpxGkqim+OFb4CZvqDu0IB+x44i8cseWuccxMf40qqp8x+z29LzzN5lBDhuPioFGpZeVhg/Yu5gIN9GN9aCBWahi6iY4KjccFRuAAsLVhKsPGxvmsUxG8s0t2LiIWEMOHeEXjVskIqDW+a7d7sXpZsGNjaL7xSblUns1GxtxVZZdW0tsXMF+AjgaoMCt8F6gSMOXn7pi++B1CHIJdiy65+YXKElyXoECIaZZgyhiA2E+cdMCQRZBsgu3itGOWA3aXZfHafJNN03YRq2r1TluOaq+X/DZMozmDmnEgJtFKmPOkmZcvKF54gnzfJByg7fthaV4+LuAlDPQOwOT5Q3aFT7ZN3QjzIsZ4bntd9NwkcBD2UZjnXNoZRHwSx3uu0LSXzs+naWBIyWIcAHYKaJ6fMTr5m+XWCOkZIknHsV/i96pMsr6QuXjnBlxIcvcWwKVLXV/LLV1PpHsyqJHZtV4XVUgKwI5p2FpiYm4KDOlRs/nG7ZJnZY5g2tOxg+y7ak8HU1S6s84Vit35mnaIn+Ve5HlhDAR4yXky/sYptkdJc3WnvbZlt27CyA1pyN13kfVGJjIKB1hdRkD8IBNPFt4BfSfTMXWntS30Zad3kgyAV31Fk8/661JmWAcsDoJS1glAEmVtSJxll1xENHvE7yH3hIoMR0Wn9FdCt7r70cWaZYkU0dRylJWc1G/n8DVuWJo7gHi0XqhOVMWV773ViWbv3gJEDUSWZYdlE5gUISoHCvuvcv7XQJgr8PZto6q7cBsiTJu3vV/i/5edZz6qi9MF7q4hrBP3phosrT8w4/dBRReKhDxZUWFqw/jovFM02Traa2hzGRwC4dVgNjPKzzFZSXI9XNxaaiBDt8TBxdtrQWr6rAFvNDtMoTB2CZMoxMtXRPWVpsGGopCT+XCQsJi5F1DWNyL9kt2VmxtHNO4+T77lg79d5tCkwIPC7odbbx5KUNoR0VHsC0YcL9bbAif2Brxpjs3tS9sLD28oPltDaRdervGAjztedfMZ2IZ/XkuS8BVW8FmNOfbUZuhnz50lWwBFgHco99Aec/BwuYdbt9BiJhHNTFeAgK94OngyVuHveVRBfftOD4HKlYG6A808Ju/1IwKQqgJH0NkGkFMx/ihtMCEj3PwWcDmPLihtPOU+E4Dsan1MeD3AQElaKvpCyloHvnY2yX5JIVXlGXoL/4qnhQBE5VdeE29iKkjsoaqjNW6nUwTbRrRi6qfQlavwsQ7IVuF7Srj4RTv3Be8OAFu2g2v+DBL6qBjURcS/bv5eA1M6pwbPVRIZxxXMvAKuC4od68UPKpzDo9rT+ZzdgL1k3/Fcc53HKiBUVLanpdsQYTTErxawITgbR+moFZ1LUQvnn4olk/dFrTX9Bt7Vps7DAMEzS05DjuxoLGCeTdknaPrgXYiXjwJShd/zHeICnDhM33EcC0MVIAVVKmrtYwTdxzG2UKm7A7bUZuAoYNhqcfb7Cge1gqOutGXcG8MJ5u32AIS50S/ss459KM/wM+Bkxim5A4pTyVR8Qf0yPlImXA+5iW0GzwT8AkidO92vd/0Uer8jpPXVTZ051pehWMVVuKJM3eZe4g7uvhwiUr48EEc9ZtGIm8dHklXWGyRd0Kwc/RktynTs/aMVoweWQ7BhfYWm1Zzvi4xKQExMSrgyNuJBVPPDKeVDYZto19gV5OFnB9GYBw1ZT5P65+ZNZT6KbdjnRdDRAsQ7cQxQmswEJghJXCK1ADrIWMa/Fx8W68TyUWU2MSFJ1CJYxFLPiEBpoVMox7GtZdC6rpLS1j8zscT2Rbd/99ww2LOX7hUh7o1Ytrzx3V2KI79slmv0avIwh+Z+iCWf9taml8H8S8GtfjsFRliHqDBMN5avyN24FxnDL39Mb0jo36xjXAPKR8mF9Nb9Tn/wDrJRsBZD/EGyWnsFzVDLf7gKG+IBFkY6gDvLmSrQx6duJa2qcacIyQL4d791pgu0K50eTY7tN+xrS47aDdrbNnbHeSxl/hnOOAt4OvAQd3dunoAck0ii6cqj3xfo/jf4I3gEndBgQ3eOi/pItd33fBQ0KlXEcpp2c9GZYdAS2M2N7E/0WcjwerLkaYMNyoextYLFCWbbeIkXrklaejbUb3kf36PXgmSSZEyLb2tPVC2W+ShbB51SBSxY7t1fY24uGMQZF4tI05y689XLh2dyGt2lig8eq5XFD5uWELZ9zltKWnwxLiMoJh6A5WAQQ8+EOZB29zAJoDcDeruH0U36NF9xbWHzYj4EDYLnzL7QOAxkYA5Gt2xnnFad37r/UzH+UCznYi4JHUAl+O6e0H0GuPzT1j3utwyvd5sbh43fS5tAI42P3osIWfO9bMJscgH2NRb3jtTTsF+R6A/FXpHJOk9U3LjN//3dPWL9um1g+6NgR1kgiytBLxgFk9tW7h0Gdm/TnenLoJq1ZoAVQblXEUGErIBVQVRD0gYHDC+m7O7mjZCO/fuR6d+pea4YOkCbwd7GurSgdl6MYZ8IxyKaxRzznyIPFwRpQ3NPUEWxpleB/w5me3jCTh3KvO/UsYpnkT+ItgWtGfBl8BPhV8HNhtPzgpQpvh1wgmENECWg8mMSzBoNuAQCURJOXQAv8HwEw/6yeYXn8+n4E/Sdzcq8J/Se+T8LoeHAWUlOPDgmDPSRTWi4TFadcoWNHaqAVfArilEnhahyYYFpWeTTqZVZN+tadrUeVLD3/wut7JBD7Btj/iIQjMQXwuILLo9eGP3XCabseGaoY9RLf0Y9B5HwCPKpgm7BNypjgF6+09rHWzMeyPz1I6WWyM8J5jZZtxU79vZTNbyldn3ubWUfk5wZUAHru2EmeB0AF0oBV8Ot6wCEkP69dKZE/JOtog7IvaX7ed47HyrgI2MfBJxyfTM7/aMOX+XSwzBXqBZPM9YfW6HN0Rz/BzNp2N8cDTEHqIYWknQBctvF3AVGwkq69DHKtXTZovDwi2t9B2RXUhlIQb9RULQz8CZLdvAoSlpYF23yGxzUfdmB0G9gmIUeFPM/flGwE+GUyjoA94IJjEG50gzyVIG8HsStL6ESIAsRz8+sRvfxwJ4Exfsfi6Wy99obcAl3yZoB/ruyfqwaf2SDslKAkw9VTeuEgX4Mr1eZ7uYhXVU7F2Xw8AKpdWAlpPEHSqzRK6oouAXKJgCbBMCFzdqReGYdgDXa7dSSuSeehRYUbUDVLsQctMIJgab9qHDB2oeNwkErCwlbzbUNQaNr68P8eX/tk49z6KTtdp4O3ei/pKnlZU/t59FDv8iOWOSZKagdv1PfiCXFV1o9OwfWB7hXdt+Y0aZuCGBgOxLrBeyhRlWTOnwdDG12iq7Kard6bb4+h8qRW2z/Cw3dEd1NSZuHoinmC8ck0QYxrIEo8cJW1ypMVVzOqC934lSUdHkUj6O5Lz++9P3f54SuelEiiVQKkEjs4S+P/fY1chQAVwoAAAAABJRU5ErkJggg==;" parent="1" vertex="1">
          <mxGeometry x="750.24" y="560" width="149.53" height="30" as="geometry" />
        </mxCell>
        <mxCell id="mXFN20k_gTlfW2L4US2_-27" style="edgeStyle=orthogonalEdgeStyle;rounded=0;orthogonalLoop=1;jettySize=auto;html=1;exitX=0;exitY=0.5;exitDx=0;exitDy=0;exitPerimeter=0;" parent="1" source="S3vcfllFPhW6Z8eUjY84-15" target="mXFN20k_gTlfW2L4US2_-25" edge="1">
          <mxGeometry relative="1" as="geometry">
            <Array as="points">
              <mxPoint x="990" y="409" />
              <mxPoint x="990" y="-50" />
              <mxPoint x="733" y="-50" />
            </Array>
          </mxGeometry>
        </mxCell>
        <mxCell id="S3vcfllFPhW6Z8eUjY84-15" value="&lt;font color=&quot;#000000&quot;&gt;&lt;span style=&quot;font-size: 16px;&quot;&gt;Genomic&lt;br&gt;Data&lt;/span&gt;&lt;/font&gt;&lt;br style=&quot;padding: 0px ; margin: 0px ; color: rgb(0 , 0 , 0) ; font-size: 16px&quot;&gt;&lt;span style=&quot;color: rgb(0 , 0 , 0) ; font-size: 16px&quot;&gt;Results&lt;/span&gt;" style="sketch=0;points=[[0,0,0],[0.25,0,0],[0.5,0,0],[0.75,0,0],[1,0,0],[0,1,0],[0.25,1,0],[0.5,1,0],[0.75,1,0],[1,1,0],[0,0.25,0],[0,0.5,0],[0,0.75,0],[1,0.25,0],[1,0.5,0],[1,0.75,0]];outlineConnect=0;fontColor=#232F3E;gradientColor=#60A337;gradientDirection=north;fillColor=#277116;strokeColor=#ffffff;dashed=0;verticalLabelPosition=bottom;verticalAlign=top;align=center;html=1;fontSize=12;fontStyle=0;aspect=fixed;shape=mxgraph.aws4.resourceIcon;resIcon=mxgraph.aws4.s3;" parent="1" vertex="1">
          <mxGeometry x="1236" y="370" width="78" height="78" as="geometry" />
        </mxCell>
        <mxCell id="7eVTfoRR0JfXgOaUvfjx-2" style="edgeStyle=orthogonalEdgeStyle;rounded=0;orthogonalLoop=1;jettySize=auto;html=1;exitX=1;exitY=0.5;exitDx=0;exitDy=0;" parent="1" source="S3vcfllFPhW6Z8eUjY84-17" target="7eVTfoRR0JfXgOaUvfjx-1" edge="1">
          <mxGeometry relative="1" as="geometry" />
        </mxCell>
        <mxCell id="S3vcfllFPhW6Z8eUjY84-17" value="&lt;span style=&quot;color: rgb(0 , 0 , 0) ; font-size: 16px&quot;&gt;Genomic&lt;/span&gt;&lt;br style=&quot;padding: 0px ; margin: 0px ; color: rgb(0 , 0 , 0) ; font-size: 16px&quot;&gt;&lt;span style=&quot;color: rgb(0 , 0 , 0) ; font-size: 16px&quot;&gt;Data&lt;/span&gt;" style="points=[[0,0],[0.25,0],[0.5,0],[0.75,0],[1,0],[1,0.25],[1,0.5],[1,0.75],[1,1],[0.75,1],[0.5,1],[0.25,1],[0,1],[0,0.75],[0,0.5],[0,0.25]];sketch=0;outlineConnect=0;fontColor=#232F3E;gradientColor=none;fillColor=#232F3D;strokeColor=none;dashed=0;verticalLabelPosition=bottom;verticalAlign=top;align=center;html=1;fontSize=12;fontStyle=0;aspect=fixed;pointerEvents=1;shape=mxgraph.aws4.disk;" parent="1" vertex="1">
          <mxGeometry x="937" y="-389" width="78" height="78" as="geometry" />
        </mxCell>
        <mxCell id="mXFN20k_gTlfW2L4US2_-7" style="edgeStyle=orthogonalEdgeStyle;rounded=0;orthogonalLoop=1;jettySize=auto;html=1;exitX=0.5;exitY=1;exitDx=0;exitDy=0;entryX=1;entryY=0.5;entryDx=0;entryDy=0;startArrow=classic;startFill=1;dashed=1;" parent="1" source="S3vcfllFPhW6Z8eUjY84-19" target="sL4Nn9DePdbIYLaGDzBA-1" edge="1">
          <mxGeometry relative="1" as="geometry" />
        </mxCell>
        <mxCell id="S3vcfllFPhW6Z8eUjY84-19" value="" style="shape=image;verticalLabelPosition=bottom;labelBackgroundColor=default;verticalAlign=top;aspect=fixed;imageAspect=0;image=data:image/png,iVBORw0KGgoAAAANSUhEUgAAAkUAAABwCAMAAAAniPTEAAAODHpUWHRSYXcgcHJvZmlsZSB0eXBlIGV4aWYAAHjarZhpcuQ6DoT/8xRzBBIkCPI4XCPeDeb480FVdrd7eVuMyy6VVRIXIJGZUDj//eOG//CTi7ZQ1FrttUZ+Si9dBh9afP305z3F8rw/P0WjvM9+OR/sfQ9fp5g55te/Nl7HNDiv3274mCPNr+dDe38j7T1Q+hz4+ck+s3/e3y+S8/I6n8p7oH5eH2pv9v1S53ug9b7wWcr7r3wu671d/g9fThhR2h6ELHJyyvF5b68VZP+TPDhm3iUr13ENnzX3wCFneQ9GQL5s7+MY4/cB+hLkj0/hx+jn9Ovgy3hfkX+IZX3HiA+//CLpD+fz5/zyZeLPFcnXL8qK66ftvP/u3e3e89rdKJWI1jeinmCnj2G4cDJUfm6rvIw/5bM9r86rxREXKd9MN3mt1JMQ8RtSSTuNdNN5jistlljkiHEUWZKfcy2bdFnZ81T8la5Y7nnnRv6WnEDOSpbPtaRn3v7Mt1Jj5p24VBKDpSf9v3mFP/vyn7zCvR7blDyYTzk8CRZHFsvwzPk7V5GQdN950yfAH693+uN3wAKqZFCfMDc2OOJ8DTE1fcNWfvKcuU45vkooBdvvAQgRcyuLSZkMxJqyppqiiVhKxLGRoMHKJReZZCCpymaRUnKuEkya+NzcY+m5VlSq+Gm4iURortnITc+DZJWi4MdKA0NDsxZVrWoQm3YdNddStdZq1UluWLZiatXMmnUbLbfStNVmrbXeRpee4UDttVtvvfcxJAwmGow1uH5wZsrMs0ydddpss8+xgM8qS1ddttrqa2zZeUMTu27bbfc9TgoHpjjl6KnHTjv9jAvWbr7l6q3Xbrv9js+svbP60+sfZC29syZPpvw6+8waZ4PZxxDJ6UQ9Z2RMSiLj5hkA0OI5iy2VIp45z1nsQlGosEj13ISdPGOksJwketNn7r5l7m/lLWj7W3mTv8pc8NT9PzIXSN3PeftF1rbr3Hoy9qpCj2nMVB/XsJKgSdfdq5w5+lK2ZJaltD4yxFJFqc+17rRzkZNTAMeOpmO2knsre7Ngua1ZKCxCaxu51zJ7T8S8y65SPQ7XWMghU7aKDrQ9ztz72Zbhqa1zrjIM7oWfQ7y7DqI27kp1D0u6CfSZe69kF6G7NXVVu9eretTdmX8Uy3kRUVK1e0ltN9K/W5musjAnFsHKnXHLXeMev/m2WG623iFikjBaRRdHP/CDtUxG1t68rZDiAgy3djIFgFsFc5b5t5TVpzEM6wGQIL2kFU/cVjStNmXVCVJjdSUZPaTtId5l1AOszdLmugKkchzS+I3fHdkLtxOt7VjBL8y8FxuafYVapd06GS/3c2LNky2sczjkPGcEt0S/3ILW9lXL2KaT8XTI7AaxMTKxPQHUEAm/n9cAgWvGOzXLId2peyruafdImWWzGlYswJFUKmlOtrskA16kv7ST+73Vr8srK5m4wGjWsbqyFsqn+t7Ggg1+3q7HjuLE+rlZ8rD8/liVlJ/DCsoFLqegfAIj96Mjpd17axqiXdigbtYrjdXDBGNk1tLmGhF4p0bxHZGpQDiXOFerLKHPWm8DS1NcTi0c1F0XRTrauXVBNoPZVbTEk28ae96jW+qc81KodzSvpbGwBIWcieazp5URzjVQVPuyfgxOHF6jJqR6lURsTAG3kWyLu8JTq3cgC6SoFzUOt+69ywnWR+WyKpQHkAKnubYNEeE35uPwVs91gedV3AgSJmDH7xnRJsi41ebcOSiJ2jXVK6wiGUk9BhnlQ/HGXOPqF19pdd8O4sUG+Ljr3EFZkFCbfju7D7X1RLWutal/4g9Ie56t5+VVHe+CCQEjojrOWFAaGSFKktTxB4FWTdRjDc5NY9MEKIqretwUQXQtUiXQ7MoZ3Vp6cly2p4CBvovdmYktCYevjJScjGSf2tYpd5CeeSO4B7/tVGMmpADOuJNyJJYee1ad0sR3Ng+ddSwUBLnzDOXe5MkdD+gobSZIy+rBhXEGUNsgnHbmspORvLbvFQZWqmEcvTtJn6yIrfZ0bWHa2LOStIfCyCIDjFT22poOdGBxgqLNXAR0nMMXdgY36HX6DBwNhi4wMUIxo6wepV4H1RyCBFy3YZfAJFi1dSShTSXeFAvjJJ2dXmFJWMBM4BZw3RYbxgATFK3xDNSoTu5Gs1k7YN56NiK4IeyLZigErqsftHNhIjI0AXoq9HKjHsA7Vkbd4KhBPPQUEpSAd0ZhiLFrKMtivLybZq+KgrKH6UwLhZzprzkStD5BzAEv7bpxnjUfpENIFrvTKxFd6FDUgbjPIpCATsP1HWCRiTg8hG5NnEIzWBRoHlgM9GS4qG5nNmqDEctgUzOXzX4HBE1h9ADmjqPIg9oXsjmIAIDGT9QG5NPxoG1A06+gtPiN0VkD5UrJEVntzqklbDnWCpPY9soBTgg3ZBzrgBzrLedonDMddwh7MyaUXER3ccGiitgkTpbqH2CNHA4kfEk5JKBCQGeDKVIJZUBjCOVCxS6cQLqcwW3yRSGGlBGyhmH37DKMNx+Mm8c0V9IzTdWv3QUFhuvAHXQm2tLZVSPFRd+CPXNDgk7bDMghNJqvUJvbh6ERKAyD7paLHerj0N+iJwUihDc6q1oZ3kAIPa5xMRalHp4gJ+RDKRa9T4FAvMD0Uvmvb3NNXldPQtYhxwv9In3z2SeEyq5Jf5obk+CAw9x0Sn8+1UadsbtObR/si1sXvIejd3Jx1ZMIiTaKb22iRXO811PvMD3gW2Ps2564DXyDUd2U1IR2icMYXua9yp0eI58OZq83Asoe6jw4GSIP5K82p6xEfVwAA9kkeDF7isigiy4YhKiYmKkYq2+4EeZmaQEaI4wFvYTZrzPu8E61OxAa1qdUavxYZTIWi+MpHWsGnyzKO/qqWoOmZqCelJWRf0xUIkSGXicMwzQvY8CLKnTo7WCGGnXCXsyg/lbzRT1ZYMMPrXDU68OW06/BjFU/5pFFdK0iZBdRYobeAFpfbJcgPtRfpz8LuUIxBXrizYBlUQVua1FTWftydGML3d2TyaqLfiFGeQ8FfqeLIscI0e2GnuP8u8DPiFbaE/c0kWR4gXsnTvoA0ezU0akjqm4vd7BwysWnbpkQ90S5DiLUgtvxxtoOLq7gJZLQuV+40rngYCwRX6CJ1bM0CoaN7JJAaDZBPoPQe1ov2g+fei7NvRSjVRbaeUvums9igUWx4U5vjJl00Mu2rlw6UQQFY2sL5iIInhvuJBVuArrhfxhZICPxZ1MVly+D+3DxHUFG9N3PDSQIL1Qk0wTFjN0I2DYjDsQat76hRkH1kLG+HKAmYGTH44WUiRUFOFm1P0PqqIULUZnRDWcwbxU6yy+l4S/A/G4yD4kfGypfRAHGhRYwShhuwWcNb3ycrTAP+3jXgLUPSDCOIXbaJoLzQOPc3fBiddFadG7ERTycgGOtgEKIgqAH6kaqoIEO7BOAvANaeMeU4/jqs75NsVHPk6qJ3t8L6yIwlYZiXQgcdkBLsqdp0MfpDXQeXIzHgQDxDHYxi3DxhhKg6kyrWDb1xi6oGGV9WtN0TwDq/NkatgehnTe0k5pjszPNFBiwHqw6W5t0sAsUbHUwwgn30H4M+mYjCwgX1v1i56p6AccAgSZSumJzX4RS4KE69obWhTvpmkZ1Be6bsqAr8m6pTMSV0saSFmwT6jQXvci6uD/8pnsPsjZhyMNS2b7RaXtn19R0E2MMX/ZWdCHbB0Onjwb7pePsgAZxKcrgZpK2aLj84Rwh7tg27SFmyR3ocVZH/LGnSD153/5gcmMKcVlY0ECrarSLc8CRK8fdT6fA6RZKIRg4Hpo4mhrGdy4hPOfAvag6ZoSNUyIDWtEYBH7FNGCjq7dHtjrG3ilNaNxchcmgSzlRhmtn8bYEHVRiMNl2pAGnhGsLuA/aOqpSEGqh3ZEUPREQKQ4UCcCkbCgEU1GU3h/+AfSDprc9hol5CF2pgQ4DRNAmYlbw84Plu/oxJbJGR8Pm4M7O7lP14qS8O10hssB0CD2RnWjCDaxhNrh3EdfIbKKUTDrglU4Y/5OAvFfUBWG0OgceON7hDpJDEw2lDO8gevBnFdhik+epgWBm0VnSts3NLsyIN0Sw64qQ4sXpJXcf9N/6NBLL6412ZIRStO30PIujveKdoXp5PbNdEWJxZsYBEye6T0iyyKwuCYbvpcoLNm3S8ATsPrVzcQI0m1yx89oJ0lv4cicpooaHwFif5s9O8K3YQExlx/b44xkkGz3eO6ibSPTFaikRm0GciSf8j0Ftl4y99LMvPFLTAhTVB/UuG3ThaWEvQbT9MbQWGMCp250jRgl/BS8UUAb/0b1LAXSUOFMgovQOtU1nZ7onRTkW4AGQyZsbmjta0+10Pm+lE6E6IHQ6uzX8MYvRmtGiVhgJzOBem+LG4qQ32ngKYYNBYNi8EHdEm5Iv2eME+3tdIFDU2Wo0PiwHJcheHtjp5M9jGpLiajfxSTEG4oR+OsDywuJDKEBosoAGLUqiRVg42NIQDm/NUZRnWZnSvFhjt4mkFRNBxtZ0yqMdyNkfKY7YyBrig/zIBq1QNFs9z/Pz5CmE7VFJcN28j9wEM8FH/sgkJ4EsvBmlqmnXG0YSlmY/eBrFA4G+QofP2Nxr3JcWt1G4VaDQZDsFGqruIfMdAlngg9s7eB3slk9pRpeHdSWByJJG9Bn/680KnaHbKvFl5RSUfVrxp14KTtmVP5/wJxBsQ8Abfsj7fvaG77RIyIc39VA1aYwUX7OExtTwzIljfp5+lL98uvHbY/i3N/5wNHz27uF/y4MWayaeW0oAAAGFaUNDUElDQyBwcm9maWxlAAB4nH2RPUjDQBzFX1ulIpUOdlBxyFCdrIiKiJNWoQgVQq3QqoPJpV/QpCFJcXEUXAsOfixWHVycdXVwFQTBDxBHJydFFynxf0mhRYwHx/14d+9x9w7w18tMNTvGAFWzjFQiLmSyq0LwFQH0I4wZjErM1OdEMQnP8XUPH1/vYjzL+9yfo0fJmQzwCcSzTDcs4g3iqU1L57xPHGFFSSE+Jx4x6ILEj1yXXX7jXHDYzzMjRjo1TxwhFgptLLcxKxoq8SRxVFE1yvdnXFY4b3FWy1XWvCd/YSinrSxzneYgEljEEkQIkFFFCWVYiNGqkWIiRftxD/+A4xfJJZOrBEaOBVSgQnL84H/wu1szPzHuJoXiQOeLbX8MAcFdoFGz7e9j226cAIFn4Epr+St1YPqT9FpLix4B4W3g4rqlyXvA5Q7Q96RLhuRIAZr+fB54P6NvygK9t0D3mttbcx+nD0CaukreAAeHwHCBstc93t3V3tu/Z5r9/QDeUnLSoWpUZwAAAvFQTFRF////6+38yM34p7DzjZnwdoXtZXXrV2npT2HoSl3oTmHoVmjpZHXrdYPtjJjwpq/zxsz36uz87e/8vcT2XG3qQlbnWmvqipbwusL27O789vf9ucD2Q1fnR1rnVWfpYHHqZ3frYnPrW2zqTV/ocYDttr719PX94eT7iZXwSVznRFfnannslaDxs7v10NX529/6vsX2oqzzfIruR1vnhZLv3eH62d36fozuU2XplJ/xx833/f3+2t76qbL0a3vse4nu1Nn5gY7vys/4/P3+5Of7oKry5+n7+/v+S17omqTyY3PrSFvn+fr+4OP7n6ny8/T9/v7+xcv3X3DqXm/q3N/65un7sLj1hpLvUWPo6u38f43u9/j+8/X9cH/scoHtprDzRFjn8PL91dn5WWvq6Or8z9T42Nz66Ov8Vmfp8fP9YXLryc/4uMD2dIPtbHzs0db5Znbr3OD6nqjy8vP9d4Xt6ev8usH2l6LxeIbtgI3ulqHx19v6q7T0o6zzxMr3bX3s1tr5RVnnztP48PH94uX7WGrpbHvskJzwfovukp7xwMf3srr1w8n3g5Dvj5vwsbr1t771wcf3UGPo1tv5rbb0b37s7vD83uH6TWDot7/1+fn+XW7q3+L6b3/sv8b2wMb3tb31kp3xrLX0rrf0wsj3zNH4dYTttLz1iZbwiJTvZHTrUGLo0tf5jprwsbn13+P7qrP0hpPveIfto63zrrb0r7j0mqXyy9D4+vv+Rlnn09f5wsn3vMP2/Pz+7/H9yM74YXHqgo/vu8L2TF/oeYfuanrs5ef74+b7nKbyWmvpRlrnSl3nT2LoucD1+Pn+aHjroavzUmTpaXnrqLHz9fb91Nj5j5rwi5fwWGnpbn3smKPypa7zeoju5ej7W23qnafyc4Ltk57xfYvuVGbpkZzxm6bypK7zy9H4hJHv0dX5najyoKrzmaTyzdL4h5TvU2Xo0NX4wMf2qbLz0tb4wsj2Wmzp2t36TmHnUmToqLDz7vD7BiOUuwAAAAFiS0dEAIgFHUgAAAAJcEhZcwAACxMAAAsTAQCanBgAAAAHdElNRQfmAxkPOyBq+Lg3AAAWhklEQVR42u1deXwNV9+flERuEkGSnyWC2OWiStCrNwuCpBIkbuxB7MtTisRSe4hdSqJ2Wm0ttZaqNimprejzvO8bu6KlVKuqPO++/vWemTln5szMmXvnXvJp8un5/kHmzJl7Z875zm8/5woCBwcHBwcHBwcHBwcHBwcHBwcHBwcHBwcHBwcHB8cfD79XqlT1D6gWaLMFBYdUD61RsxYfEw5vEBYeGgEG1K5Ttx4fGw5LiKxfPYoQp0HDRgHRjZs0VZjUrHkLPkIcntCyVYxEF3vrNm1fVURPZLvX2ncIkk7EduzER4nDHTq/LjHF0eUNhshxxsUnSKcTu/KR4jBDrW6ysOmeZNqlR8/aYp8OvfhocbCQXMWG+JHyZpj7bknhvVG31PZpfMQ4DOgjkiO2bz/PPdMz+qOurkw+Zhw6NBeN6sQBXoitBgP5qHHQSBuEODQ4w/oFQ/zRBUOH8ZHjUJA1HHFihFchxfSR2QAJo/jYcRDBIppEPZ1eXjW6ITKOuK/GgUk0BiC7PvPU2HEY4xkcm4CM7ImcRhwiJk0GsP2FeeotNYk2hXXlVICIMD6CHEJkAkDq2+xz06hc7HTG+WGIRgE8scYhvI7UWU2Tcw5ImSEBMe1VVoecxgC56ZXoaWfOmt1tjv87c+fxiX+ZmI/EzCzBlEXB8h+zTVgk1EM21YJK87ALFxHJWkNuGNlXBvc1XwiL8wDmCr6zSIhrAPYlleNZl85R9TNmUSA+zOdMeBGjaBnA8mR8kN52hQ4xYJP/CABYqT21ajW+ag2Ao19leNaw/sBZVC5AMiZwJjlYC16B5NEKAN6tGE+zLldGXdbJpEXAWVQu6JQNsF45KvSORe2Iv18EURsqxOOswnfWl3XyPeAsKh+g13Oj6mFtAojYbA3TbbBFiUNuBZjmrOgs2uZQKVSt8fb3OIteFl4ByNtBHU+GqBxrV2YCdFCPdgK8X9FZ9AGhUMNdlBXHWfTiSAAIpY8/BFhoOT7wkXq0AaB3egVnUUd8bvAQuvWPZZHfxx/vrvQk2gOQrSko2g3QxdqlidpY9l6AtRWcRdXwuY+EisOifQCfVHoWTQHYr2mYBHDA0pXOLXCQFj6HABIqNov6EYVWqwKx6DDAkcpOoglo9D7VNoUAHD322Zw52GPO9cfYi1FdRu5QgKGaC5cDtPzjn+i4S8bnxlPtMF2ChArEomiASp+JOQ7QWtfUxrqff0Ivm7+o0A/7Jb7tAxWIRcUlkFfp10C4APSV0xkAtlRrLNJKsaxYCHbj7KdP+Opk/X27Ti0ZYG6EO3dkHImvcmJ1XGl5PCyJqC73gkVfj39ldeHpuJzymoDxANGVnUTIWS+ZpLceouCMUJxWLCEaspNFlJb2RcZzUgi0djrTJZTawKG78izAV+zvCTt3ODpWIV/TDlsjWRTavfI86RLzTbhCpAsdP77o6UHSL73/bcHOv+b97R9SKPxjsCvgn8TTkRNFELqUTJRxwgOLtoWfnUhuaMz+hRpmx+PPqF1Gt+6XGz+m28bhnhOZiusIwOHKzqKjACMMjZcBwlStbcd/XQHIEK6SzKwgjAY4q7vwHMAVFoXiLxik2JbjBjH+F5duXwni8YkH13a5Efuj1g8NNJWX18UeN5in3Meu02oM1navdoRa6PkpaaULapLwXgZ76c/pgjvq5fTaAhH9AQIKCG5qe+S3vdUsZEztA3Nm79bWb4WeZSbP01qdbcPUmq3OfpesvnBfVemW4Lrt2llnzQRG54sFBcflfnHxre5MLrDAos9YJR13AV4zsmgWQCeaRd8DrNHTBWCn4dMOrcxmTmF/rTpMn23sEpqssAjAcSKZrQQzfshzp3V9ZVGmy3jB5XvqeVK8R0uSrrgtlab8fdz4pu7GBxk/P446XTY/gDoTO6gPdW4n5BUzhgJNib2M0V6FmuVJP1ajPvaBsRJjPcBDUSN9L/db5ZlEpSkAXQ2tp6mhUVlUer2uQLOoOsAl/ZVnoES/rijedHpTNG9eKKvLT0kqiwDOMOpStg2s7cF285FF3ZmmYeB4WoxLmEhddIX0oyanJWnT74/x4BGCmJJ5RBCsUiP9iJysKep/rZFD2r3FPruYdoDGG8einrismWFSbDoPtzG5kmpINkPR5dyVw+XqhoIsXe+fpVKzWVgO5+3yzKLOyAAx2rE3ssFlZJEg2sQOqEakZAw0NFy5wliB1Nd8fptSLPyY3aUNzSKALtt0cqh5sEcPwDcWjW7A/rQtSqd6UUYBspF0+0Vtu852DDHi2CdmjhAlWrdCP+moRfeHIkEWKVmbUwBtjRftNwZUyQuKdcvYqajHsuudZPdmUqG4dqzREG1vZH30Sa6KTux8fLNesRWzaD3bQUgAGKKwKAr/9WvKnWRhOQxXY4yDWKbi59ZZBJcVS+GemVN4WsMimKYJs4+/bMGP9IlFOY/MPm5yGiWMJbRXropUVOs1WvtQ98GKXNdhOD1IEGWvopdEZInxlwvkJcoHqGq4aB6AizUpmVGwSP5rM3qqg2/RYmMP+qIzNzTqKRZspchNSuxs2bhGtsgTRvMvAHUNLEKPMUGI20/kcnuA5oYLlwDcMmWRLWRE4pMnidE2dUq2kl7dSItjweha9053VE3sNA2LIFCVdcVf2MEyi2wiiJdot8k4asoiVb8mXFn79m+7n6o2yu+kT30DY2oqndSEdg62CqPYexlWZUWu5yG1s13v0S0sUQc3/Tzj7Z8K2ZttqhZRMIKovz7oQUf46bRdI13uAnntG59B6j4vXLShbKfqV/UFUVk0oSBed2/G9fx+AP4mLCrYpLB9nFK0Ohk39SANc/B78VyhGhrjUaemqKRoQAz/i7TxmRfT5NiCrafH99iUNUxGGQH16pGUfjNP8aIehJ8TFQNnIemVQiIjN4j8DNN7YwiFlPKRMII9A9MYketaSGQsN1aObgW1bzNooPc1Ton5T6SibhiDZK3kCA6SVIkGD6VXkfYOdiGfEVK/8sbRbw1witE8rARqG1gkW/uJOMeRFgu3GVemwhkTFn3IDI93UrxCnbrIUFw5OXeRq77msgDLUDcIbFCwMMvS41pmEbm/hpQAaUm+UHmZCnBDc9W5UHDLtJPWN8+DEr3t4UQGRTQrntYBYKWqROJ0cxYMRf3EgRyn8/IjwFaP3MkDhp1zQhuxuSUO8UJvSCQ0AfiV1X4HYKyeRc8dXYSlShXJOMJwLW7DYCssKm6CW+fLx8TPopZVKjoOOyMn1QIzcULmK7tOps7+WvOFb8jLnmYs8Z1Fzqu4JZzuNh83BijfRDxJVRIriCARpCDsqbN5voFhmCJH42otkxBxHtaU4QC7DOO8RhBWG+wv5CM/lucP2USsTRiSHZBKOdbX0M3+7F3QcQvTYxSEGYrJorJoJcCw9J+Kuis3zVqOHQLZVlgkLMCtxzQKbVm6Zsi0xutSf9JiPymowaUp+tXdH+ITPX1n0XhShqTxX7NKcDOZi1LsDdvStIaSBPwW/oYPu7EnYKAxcp11XsdeFciGOamYANoy9wmpEOKUkuvab/q6KSyTbfIAtt6RXDv1jUtGvqkjyzsWpRqjGMRK/rsSx8ZtaBJHaXzamWwV6bTCImKHbpSOyBpujbdygJhKSqThTTJDf0tUCFXFkJN7CSwiUkfneTTDzav1X9WdEUbcp6geCSb7+bRSOtKhw+Em04W+7ykei6a6JDryqn4TpFBMbb31/gERRS52krM5wFE69gPxXiZAkP/Qh9W+rQFU67d5emZmJlL16N/Mdu3aLUeUjYuL6yxhXgncZ12IOqVZYdHbuLW3ZqjX6PxHOXGgNrWN0vlf579kDvWLsugT3HBU228ubp5BGhbjBqwBNNEBbGvghUuB7Li70Fhd/0C06SOFlQa8R4S36NzE0oLyEJFB6P2i86Kd7PhFFVc/mwQQT+OwHIk8xHq7ujNVXQpk8A49IZR13WWLsugmbt1OzEb6nVZdEsmapkYrXOvbOzKFcmHRcNyw0KB+JHRUWvCu8mPkaIzm3ookIXkRH5msshpm15JB5kOE2XSdUgvdn2nqTJ3RkCrnxI4D0G/WA4iS4z5pNrCb1CVsoJVAVXbsxy2CWAkQHA3yBKaSPWPRLtKyKIEchVBQMhv0u6UxPYIvCeXDIpJB041NocFp/x23bKb0YKNYKqRNdKOJ58woD0Ve1myz6TqpOmnv06u/RPe8pxKkOU7FmBSCdGelOBUWqRIhWg0VeuOj1TR7vPtz22gxF2M2QpBqY2rggKs+sMjllq5+LEdJjOVcFMqJRUQ17dD2+9IQZiRuwfc4sy3iaS4V7XyAY6cmFVXz9eMiGV+/mk3XW6pjfI++8oYDqmE3q5/qMiJXeDvYwhRr62BvNppQvC3OM5lYD/EidpCyOMZQPGSWadN4jXZr8SIdi5ZZZ5EityAwXygvFgWxS0WWGDNiuORlqvjsOFA6+nO1OqQFTok8NRnHjgBvCYabMd0MKp6yYIKoWrtnVBGGizIk45Ukj/DE7RAPpLzT/t6SSIxdm4jP6m5rqE8bMx0kf+3/0lm0ibou6UOl+Z+XlhuLSLhINwLPcXO0IYkctVTx6YucF9XqkA/YHyRQqlMn71ogl8F02OtQSdgpEEOqnS6WEBMa4ZjKwqVNpQQSiQC++7splCdfp9rv1oH8oB/YZ753uzLhrskKxrXmeTTfNRoV0s/JpdqXR5YXi24zyn2o8MQiKhyDs2SzBOGpEgFzKdUhf8dZZ5NhRJSx6ZyRmcDMCQgk5KOYal+oBOwAUXE0r2uqYehCKm4ywQIhvjOm0z1jvalDMNo0UIZdsU2s9pHmOX13LCKlkHd+YCBRtSkWa4XWg23lxCJSKvBc26++LlYt4hslqHhBCXe3IdUhziJNhJ4Vltuoa/rUjUoZogY4pSg1Dvvu0fjL85Q1VJvtVODpvhtFacJTy+iMhDF7w5hSGww2LbLPskNj5oluOPblJYtWsj1rvdH1VF80uTGnfFj0E25Yr+13nPEo4ThwldxPDkKI7vQeYoTjp7SbzV8VOlIjIx/gkWAeLnpHzaKSxadJjaEplQMqLoHPiM6jRFQjS6u8tmVDdpnXLBJrHU3Ws87B/isLGSaFlOlFxlpHKywiQekq7u51SSOFPQqbGuWXC4t+xA06m5EkVtdRbWUpWH2dVIPxxTZcHfKL3OZv9kjdjPGSUQB5Jm+vE8kTai32Qbgj/X9CJ+taYzc5QyOiNgIc8syHxVZXtGrxjdHVxLgOMHiZCYKUfI4hXWgI3lthUTh7dmnsSKQCev+iVKfZ1pcHi04aa81EBGvzw0oWSirKfFf+fyQVRS3sLf9vGoCpzVh3EsTeglVWqBGUFbVXtqlyDkL/ZN3zixZQsgtSKBn4CbMKkpHW+84HFh1F77OpsnMD+ySTT7viC4vqkU81E7qFDanvDhkgfL1dNY7084AFAPzoO4v6kRB5D1bWJlBjEGP1FbGdij+2xRlAvCgq0uSpJgGkpDN0ADuPlXNVm8P4VtZRDzWVEAh1ZYk1Xyva25r6UTQ+0Qpaq5gOJvlYQTh8W0YU2PFfyHXJriYh+LFZ+OmmLywSI6ayPmDZy0vb9qYJPEhU3DNVGtlb5euDKhK+851Fgj8jE+8czvxgpyZ7dps4WhRMMwqHWPXKawBcrF+mcyJhPDVdG8g+Jwh9svXsyJeqvpdugSZ0RtMPaUrPvxLU26TGwxNcbgLuJJDbUJW2Tdz1bAmMtbGWWKREpKfqbDHnv/6bv8amboodkzCaWQ+25hjzFBPLfGeRsqFcG+V5ko+RtsXaq+fSt/euMhva0nHBJC5irIBscZ4dCUaOX4xm7dUEaUdXfyjR5YHSt4ib26/QGx0/sEqyxQAybeTZjTVzlvAYwJH0klj0i2btgzcsykpRKhkffPTqvU2TBrT79/+YH3qhSK9J9yrlKDd+0GjYy6v2Ldkx4FKStBkcZuTui5suvfp7oQ8sck5W1Ge4pLs3rVdiWtV1DxhH38cbgsZdEHHVdLF4TariTTMjqYYi2tLDoDGtRQxGRij6iLvGgHGQsMOuf8jOdmYEsP4yykfvah7aco+ZUZ52HbLMouKGLG/SEovEIKcF3C6kxdTvjOJ9USZd0zbF+8AiJdkhLYkNCJmoHpV8qn9Cqk42Fsu/36jLH5oOWDukZYz2ZTG6/8G6VFp+a8PWGoKQC+fTXODQ11mL4c8e1SEq0/iO24/qzLBJdTSLST43SUl4xhRP/LPMonWGbRSss6j4mmcOHRypiyJ0dTFZtPolsEipBDfgI1aYH3QVdaVqUbibbWWcg9U5vKHKiSHIdYv6mSrhvHcrj1q1QLOlqiGmJbv4HRmFO853xHIEuo64Xk/05IHzNP7mLt9YtMed5vaGRcljmFLNGouEsMkeOHT+sfGnRoof2xgscm58CSxydmPfBmObubGMnXjUq11uhnak+MuYSyKFyA0zrlLfXktcvG3fu+DLdmPHZi7sKwXFpxmDdwul5IoxuBQmDZcxt1C6QloNsWLWzT5Dxmau7btRrPmbOpbqMdms3MwzEpgixHsW7QI4kO4zi4RRU91xaMsKtrv89WybgUVCWMMXZxGd91UR1Z51EzuV84oA2ao0XXEztElyMYmkme1UYjLt21jt9waz9iioxSiBUtKAzGhBxn3d89TeSs9YZBSk+rrjzyvufgPEOov6OdgZWqssEpxHY0woFDPFza9DZM0/oGeRMCHgxVmE3vUx+htpzP4Bi33KRgJaeSDB7Z45pX2xW2FP1Co+vxkRqrHV4RR7vxQHXXapDYlHsF2t0tfmqPzcUpDh1Ecelgu+YhHyI3JemEXvmux3bZlFaOi/cBjf/v+s+l+eHmDH42axGhYJZdfVTWPa+soiIW3rcupOsh98YOLM5pA1/ZS7FM3ecMvo2Ge0b3P3+wxGlUuv3fF3Vz17vD7O1PfeEx7OzIlPDw83TV4JZaObX5m96lmN13YYFMeA8PDRPrNoc7bbjZissWhDlMne+/eey9BOUdYSGbq7To977+HK6nc2jvjv1NiU/+k/53//z+IzJLc7d+Vwt8RERe+lLfnxyd47uVXX3aP1H/5WXcH8IdzMyEOG7Z5xLHfn8DmtrtScZP7t8/AHUBmHlriph/BnwV3zlS5WWdRie4X5HRCOPwaRyAAI6vVCLEKq+FE/PpJ/aoi/j3at+AVY9DmyD8fxcfyT4yOk095x+syijGzN+hWOPyleB9a+ShZZ9FtsJfvdWI7ywTDRp33mG4vEPZum8d+w5hCEHDEDEZrkA4u62wAiNvER5EDwE1c0J5Z5zaJZyDKf2IuPH4dMI7G0KiDfOxYlizt7uDiJOAiyxJJQW11vWDRALOhI4L9Dz6EiTdrGqaCeVRY514llNEOH8ZHjoLFeTKufn19qiUWLxYxjg4F81Dh06CPVnTc6l+SRRZ2kNX6uTD5mHAYkV5HKvpqsKXPLopvSIsPU9ml8xDhYqCVXe6bsf+40YVGvBXLBcwfum3GYovNQeRdOx6Bd9/QsunH6Li7ASuzKR4rDHVp+QqpXHc1iIPDt6S3zN284vSsWSvASw9iOnfgocXhCZP3qUaa19M2a87QZhzWEhYdGGBlUu05dPz42HN7A75UqVf0DqgXabEHBIdVDa9SsxceEg4ODg4ODg4ODg4ODg4ODg4ODg4ODg4ODg4ODg4ODg4ODg4ODwwz/D7OvtUY8Oo5uAAAAAElFTkSuQmCC;" parent="1" vertex="1">
          <mxGeometry x="1580" y="570.77" width="411" height="79.23" as="geometry" />
        </mxCell>
        <mxCell id="mXFN20k_gTlfW2L4US2_-5" style="edgeStyle=orthogonalEdgeStyle;rounded=0;orthogonalLoop=1;jettySize=auto;html=1;exitX=1;exitY=0.5;exitDx=0;exitDy=0;exitPerimeter=0;" parent="1" source="S3vcfllFPhW6Z8eUjY84-22" target="mXFN20k_gTlfW2L4US2_-4" edge="1">
          <mxGeometry relative="1" as="geometry" />
        </mxCell>
        <mxCell id="mXFN20k_gTlfW2L4US2_-29" style="edgeStyle=orthogonalEdgeStyle;rounded=0;orthogonalLoop=1;jettySize=auto;html=1;exitX=0;exitY=0.5;exitDx=0;exitDy=0;exitPerimeter=0;startArrow=classic;startFill=1;endArrow=none;endFill=0;" parent="1" source="S3vcfllFPhW6Z8eUjY84-22" edge="1">
          <mxGeometry relative="1" as="geometry">
            <mxPoint x="1020" y="110" as="targetPoint" />
          </mxGeometry>
        </mxCell>
        <mxCell id="S3vcfllFPhW6Z8eUjY84-22" value="&lt;span style=&quot;color: rgb(0 , 0 , 0) ; font-family: &amp;quot;helvetica&amp;quot; ; font-size: 16px&quot;&gt;Genomic&lt;/span&gt;&lt;br style=&quot;padding: 0px ; margin: 0px ; color: rgb(0 , 0 , 0) ; font-family: &amp;quot;helvetica&amp;quot; ; font-size: 16px&quot;&gt;&lt;span style=&quot;color: rgb(0 , 0 , 0) ; font-family: &amp;quot;helvetica&amp;quot; ; font-size: 16px&quot;&gt;Data&lt;/span&gt;&lt;br style=&quot;padding: 0px ; margin: 0px ; color: rgb(0 , 0 , 0) ; font-family: &amp;quot;helvetica&amp;quot; ; font-size: 16px&quot;&gt;&lt;span style=&quot;color: rgb(0 , 0 , 0) ; font-family: &amp;quot;helvetica&amp;quot; ; font-size: 16px&quot;&gt;Inbox&lt;/span&gt;" style="sketch=0;points=[[0,0,0],[0.25,0,0],[0.5,0,0],[0.75,0,0],[1,0,0],[0,1,0],[0.25,1,0],[0.5,1,0],[0.75,1,0],[1,1,0],[0,0.25,0],[0,0.5,0],[0,0.75,0],[1,0.25,0],[1,0.5,0],[1,0.75,0]];outlineConnect=0;fontColor=#232F3E;gradientColor=#60A337;gradientDirection=north;fillColor=#277116;strokeColor=#ffffff;dashed=0;verticalLabelPosition=bottom;verticalAlign=top;align=center;html=1;fontSize=12;fontStyle=0;aspect=fixed;shape=mxgraph.aws4.resourceIcon;resIcon=mxgraph.aws4.s3;" parent="1" vertex="1">
          <mxGeometry x="1230" y="-30" width="78" height="78" as="geometry" />
        </mxCell>
        <mxCell id="S3vcfllFPhW6Z8eUjY84-25" value="" style="sketch=0;points=[[0,0,0],[0.25,0,0],[0.5,0,0],[0.75,0,0],[1,0,0],[0,1,0],[0.25,1,0],[0.5,1,0],[0.75,1,0],[1,1,0],[0,0.25,0],[0,0.5,0],[0,0.75,0],[1,0.25,0],[1,0.5,0],[1,0.75,0]];outlineConnect=0;fontColor=#232F3E;gradientColor=#F78E04;gradientDirection=north;fillColor=#D05C17;strokeColor=#ffffff;dashed=0;verticalLabelPosition=bottom;verticalAlign=top;align=center;html=1;fontSize=12;fontStyle=0;aspect=fixed;shape=mxgraph.aws4.resourceIcon;resIcon=mxgraph.aws4.ec2;" parent="1" vertex="1">
          <mxGeometry x="430" y="20" width="78" height="78" as="geometry" />
        </mxCell>
        <mxCell id="S3vcfllFPhW6Z8eUjY84-37" value="" style="endArrow=none;dashed=1;html=1;rounded=0;fontFamily=Helvetica;fontSize=16;" parent="1" edge="1">
          <mxGeometry width="50" height="50" relative="1" as="geometry">
            <mxPoint x="1200" y="-274" as="sourcePoint" />
            <mxPoint x="1250" y="-324" as="targetPoint" />
          </mxGeometry>
        </mxCell>
        <mxCell id="S3vcfllFPhW6Z8eUjY84-38" value="" style="endArrow=none;html=1;rounded=0;fontFamily=Helvetica;fontSize=16;" parent="1" edge="1">
          <mxGeometry width="50" height="50" relative="1" as="geometry">
            <mxPoint x="1368" y="-275" as="sourcePoint" />
            <mxPoint x="1418" y="-325" as="targetPoint" />
          </mxGeometry>
        </mxCell>
        <mxCell id="S3vcfllFPhW6Z8eUjY84-39" value="API Messaging" style="text;html=1;strokeColor=none;fillColor=none;align=center;verticalAlign=middle;whiteSpace=wrap;rounded=0;dashed=1;fontFamily=Helvetica;fontSize=22;" parent="1" vertex="1">
          <mxGeometry x="1270" y="-314" width="60" height="30" as="geometry" />
        </mxCell>
        <mxCell id="S3vcfllFPhW6Z8eUjY84-40" value="Data Transfer" style="text;html=1;strokeColor=none;fillColor=none;align=center;verticalAlign=middle;whiteSpace=wrap;rounded=0;dashed=1;fontFamily=Helvetica;fontSize=22;" parent="1" vertex="1">
          <mxGeometry x="1438" y="-313" width="60" height="30" as="geometry" />
        </mxCell>
        <mxCell id="S3vcfllFPhW6Z8eUjY84-45" value="Key" style="text;html=1;strokeColor=none;fillColor=none;align=center;verticalAlign=middle;whiteSpace=wrap;rounded=0;dashed=1;fontFamily=Helvetica;fontSize=16;" parent="1" vertex="1">
          <mxGeometry x="1190" y="-394" width="58" height="30" as="geometry" />
        </mxCell>
        <mxCell id="mXFN20k_gTlfW2L4US2_-3" style="edgeStyle=orthogonalEdgeStyle;rounded=0;orthogonalLoop=1;jettySize=auto;html=1;exitX=1;exitY=0.5;exitDx=0;exitDy=0;exitPerimeter=0;" parent="1" source="2tOeyaOIQDvBSedVUTa_-4" target="2tOeyaOIQDvBSedVUTa_-22" edge="1">
          <mxGeometry relative="1" as="geometry" />
        </mxCell>
        <mxCell id="2tOeyaOIQDvBSedVUTa_-4" value="&lt;font color=&quot;#000000&quot;&gt;&lt;span style=&quot;font-size: 16px;&quot;&gt;Genomic &lt;br&gt;Data&lt;/span&gt;&lt;/font&gt;&lt;br style=&quot;padding: 0px ; margin: 0px ; color: rgb(0 , 0 , 0) ; font-size: 16px&quot;&gt;&lt;font color=&quot;#000000&quot;&gt;&lt;span style=&quot;font-size: 16px;&quot;&gt;Analysis&lt;/span&gt;&lt;/font&gt;" style="sketch=0;points=[[0,0,0],[0.25,0,0],[0.5,0,0],[0.75,0,0],[1,0,0],[0,1,0],[0.25,1,0],[0.5,1,0],[0.75,1,0],[1,1,0],[0,0.25,0],[0,0.5,0],[0,0.75,0],[1,0.25,0],[1,0.5,0],[1,0.75,0]];outlineConnect=0;fontColor=#232F3E;gradientColor=#60A337;gradientDirection=north;fillColor=#277116;strokeColor=#ffffff;dashed=0;verticalLabelPosition=bottom;verticalAlign=top;align=center;html=1;fontSize=12;fontStyle=0;aspect=fixed;shape=mxgraph.aws4.resourceIcon;resIcon=mxgraph.aws4.s3;" parent="1" vertex="1">
          <mxGeometry x="1230" y="170" width="78" height="78" as="geometry" />
        </mxCell>
        <mxCell id="2tOeyaOIQDvBSedVUTa_-5" value="&lt;font color=&quot;#000000&quot;&gt;&lt;span style=&quot;font-size: 16px;&quot;&gt;Genomic &lt;br&gt;Data&lt;/span&gt;&lt;/font&gt;&lt;br style=&quot;padding: 0px ; margin: 0px ; color: rgb(0 , 0 , 0) ; font-size: 16px&quot;&gt;&lt;font color=&quot;#000000&quot;&gt;&lt;span style=&quot;font-size: 16px;&quot;&gt;Archive&lt;/span&gt;&lt;/font&gt;" style="sketch=0;points=[[0,0,0],[0.25,0,0],[0.5,0,0],[0.75,0,0],[1,0,0],[0,1,0],[0.25,1,0],[0.5,1,0],[0.75,1,0],[1,1,0],[0,0.25,0],[0,0.5,0],[0,0.75,0],[1,0.25,0],[1,0.5,0],[1,0.75,0]];outlineConnect=0;fontColor=#232F3E;gradientColor=#60A337;gradientDirection=north;fillColor=#277116;strokeColor=#ffffff;dashed=0;verticalLabelPosition=bottom;verticalAlign=top;align=center;html=1;fontSize=12;fontStyle=0;aspect=fixed;shape=mxgraph.aws4.resourceIcon;resIcon=mxgraph.aws4.s3;" parent="1" vertex="1">
          <mxGeometry x="1236" y="560" width="78" height="78" as="geometry" />
        </mxCell>
        <mxCell id="2tOeyaOIQDvBSedVUTa_-24" style="edgeStyle=orthogonalEdgeStyle;rounded=0;orthogonalLoop=1;jettySize=auto;html=1;exitX=0;exitY=0.5;exitDx=0;exitDy=0;entryX=0.75;entryY=0;entryDx=0;entryDy=0;entryPerimeter=0;startArrow=none;startFill=0;" parent="1" source="2tOeyaOIQDvBSedVUTa_-22" target="S3vcfllFPhW6Z8eUjY84-15" edge="1">
          <mxGeometry relative="1" as="geometry">
            <Array as="points">
              <mxPoint x="1295" y="354" />
            </Array>
          </mxGeometry>
        </mxCell>
        <mxCell id="2tOeyaOIQDvBSedVUTa_-22" value="&lt;font style=&quot;font-size: 16px&quot;&gt;Post&lt;br&gt;Analysis&lt;br&gt;Automation&lt;br&gt;(Separate Diagram)&lt;br&gt;&lt;/font&gt;" style="points=[[0,0],[0.25,0],[0.5,0],[0.75,0],[1,0],[1,0.25],[1,0.5],[1,0.75],[1,1],[0.75,1],[0.5,1],[0.25,1],[0,1],[0,0.75],[0,0.5],[0,0.25]];sketch=0;outlineConnect=0;fontColor=#232F3E;gradientColor=none;fillColor=#D45B07;strokeColor=none;dashed=0;verticalLabelPosition=bottom;verticalAlign=top;align=center;html=1;fontSize=12;fontStyle=0;aspect=fixed;pointerEvents=1;shape=mxgraph.aws4.lambda_function;labelBackgroundColor=none;" parent="1" vertex="1">
          <mxGeometry x="1378" y="330" width="48" height="48" as="geometry" />
        </mxCell>
        <mxCell id="sL4Nn9DePdbIYLaGDzBA-1" value="" style="shape=image;verticalLabelPosition=bottom;labelBackgroundColor=default;verticalAlign=top;aspect=fixed;imageAspect=0;image=data:image/png,iVBORw0KGgoAAAANSUhEUgAAAdEAAABqCAIAAABs2/zOAAAAA3NCSVQICAjb4U/gAAAgAElEQVR4Xu19D1RTV7pvLO1JpT1Wb9LxLvKcO/HqGO2sUDsvjH2mdR6p9zWUjgFnQBwDugRxGWEeKfeK2BHhjpSOCPOkuAaFVzFWC3PFOKWkU03us8aOk8xoyat6eHLN3HrDHWqyynhaLKfSvh2S8yfJSQgIMYYvi7qac/b+9rd/e+d3vv3tb39n1mdDnwvgAwgAAoAAIBATBB6KSSvQCCAACAACgIAXAeBcmAeAACAACMQOAeDc2GENLQECgAAgAJwLcwAQAAQAgdghAJwbO6yhJUAAEAAEgHNhDgACgAAgEDsEgHNjhzW0BAgAAoAAcC7MAUAAEAAEYocAcG7ssIaWAAFAABAAzoU5AAgAAoBA7BAAzo0d1tASIAAIAALAuTAHAAFAABCIHQLAubHDGloCBAABQAA4F+YAIAAIAAKxQwA4N3ZYQ0uAACAACADnwhwABAABQCB2CADnxg5raAkQAAQAAeBcmAOAACAACMQOAeDc2GENLQECgAAgAJwLcwAQAAQAgdghAJwbO6yhJUAAEAAEgHNhDgACgAAgEDsEgHNjhzW0BAgAAoAAcC7MAUAAEAAEYocAcG7ssIaWAAFAABAAzoU5AAgAAoBA7BAAzo0d1tASIAAIAALAuTAHAAFAABCIHQLAubHDGloCBAABQAA4F+YAIAAIAAKxQwA4N3ZYQ0uAACAACADnwhwABAABQCB2CADnxg5raAkQAAQAAeBcmAOAACAACMQOAeDc2GENLQECgAAg8HACQLDlv7pj04tDfxTHpiFoBRAABBIVAbBzE3VkoV+AACAQjwgkgp0bj7iCTveAAOV2EsSNGwMDJDlCCQRYMi6eL5UuXipbgN+DVKgKCMQFAonAuUu+/0goln1/+ir0ou/KgiUPJz8+684X33xC3A1XhldmuMLhr3s6N71Qdzn8/Yh38DVN56qVEYsk1k23w9R1yvi+ubefRFQb+sHmy5QvanJzsxQpWOhduDLFCDgaXs43uMaEYum1HzSoAfQpQTgROPeVlie4WJw9fqez4YsgdJ5JxxZ89+HvPPXwoqcfEc6e5btLffnNn6/cdV65i/79k3mEWwVRdnbJYy8WzJ4SlEHIOAgMO00H6w7+xuYKGITgStQgYWmvsxw7LF+zvaJUI5sbXAC+AwLxj0AicC4X5Q/f+TKIcBcvf0S9afb3/hvPQxp7dNZ3v/8I+kMSPv5QaHrzzvXLrHXc1fTFo4/N+uGPH43/UXygNSQdhl0VDdaBqDsx6nF0Va+/YNbV1W5eDt6GqHGDgvGBQEJx7kf/hzpS/TkDrDB5Vsam2epNydFAjUgZ/ZneHO55887I8De+KsfrPp8rfujpH/LwdTQyg8rgUrl0AqbZo3MWJn6YhMdSvWWn0Rlo3mIpcuWK1KWLF6bMxYUPUyPk7YEbRK/9vK3Pw/ocBq3NWwtcrx3enS6axFhAFUDgfiGQOJw7TH7zzqFhBsfHnpilP/gEct1OCFlE0Ih5G3W3Px/62lcRyUSGcDLud0dMSFpgYSx18+EDmVND3/egRhxVJa11gYSLiRRZum1FGctFvDCRfaajTc0Gq8vPvCNO46vbRb9u18l5i8dRT0EVQIBBIHFixRA53vx/7J7Yhp2PT5RwfaCgWgU/f5wBCMnkUjlMnSlDYMC469UO1sIVStSV7V2HKzRhCBe1iy9R6944caRcKUqitRgm2nY12MkpUwoEsQjI9e98dPnS2N9F2ECbupmRIJz78YeU+cQdBpaXtyR//wXhpFFKXYVlbX+MqY4kf3yBdyN90i1ARVdnTYN1iMZBKM3Z3743RxaFdxaXbdh/qDyNLXmzo/GEEwAFBB4UBCa29I7bXl37A7v39QO1EHHuPaqq3jj7P2/cvdjjdzT2fkB9b2VcLWApz1Wb7brLPYTCqoT43BTpU0+nLuJfkvNAMeIh7DbipttDjnijXxcslaVOyNfMI3JCl0hL8+GLjHWKK3c0VSijd8ti0rzaiku5u854vI3i0pRkEskah69HSeeVXqLf5f5sDDFxilT2dOqSqBHjdA+FT9guEc5P3dTdMTnyNIV0nMZDwKE8/cQ14sbAkJscEY4NgUz+PZlkAu5+jsghp+NSLxpNckwfmTxNHk4fNO6XbUS/2zMyguESyWK5Qi7BmUVDiJYTuoBg6b1COAdJcliA4SikeqH8GSQ9Whmk02G/cs01ODY689DoyFKXSeLqJxdtT8YrlyCce+lfWTsUce54vY7qftqLQpZzz1M/3RlVrWkvNOjoPHK4w2R1MkYi3SSWkpaxfrMuL41deodq43Z0Hmo2dNtcrOt7rFASLn02Q7ulSCOnuW+wo/hHdXbfQydJpvuXE5uloeKCrxAHs9cfoq3OZbqTxwv5KrmMR8xjfOn94Ep9VbYkWNA430Xq0gLjlbOS3CLtT5TSyE/YQVtnm8GLWIgLApsvz1hftHmdUsI7ZTgBqqLsljO705BDubWxueMi7VBmurBIlbOtrCg9Co4gCZPhaMdps2MwZOWEhkCh0mwozFWGkTNq3fVcick3cIsKj3foZJ85DE37j3Y7PKNcvDDRMlV+6SvaFZzHGEkYW5rbuqxB446J5aqNOj3vnIkyPneUJLoPt3b0WK9ydjh96iThkmdUmrx8bbo0PHtSTsvh5pYOS1/w8KDRUa3NL9ygGmd8x5kqcXc7EXwL/b1feQb8k+5bC5J4w8ImATySg6T5Kg59+vU1W9hDFpMQPqkqFNFZuTaroO4ED+EigdSAzVhfnK2ts4SJuyIdrcXrCuo6QwgXVUZmoLWjJj9r/etmlw/L+RmalbSVMkoYjY7xdR51GLuZZT6m0GTxEa5A0Gc0XqEZJ0mWU6KJ3sRldVigbelp310QmXBJogshVlzXyUO4XsQGHcbGkrXrKjv7QhgwuLeUy1S9Mb/SEEK4qCDZb27TZ+fVmPzQBdf1faec3XXrM/J2HTLxEK5vCC4aG7dnvrS92TrIL4J7lerrKF1X0Hg6iHC93fJcNTVuzdrYZPM92Kh+Y3luQc2xYML1FkXnUNCc2dRsn1TOEqrfVLP+pfVVBkso4Y71yGU3NuuzXypq5o8FHHVZatbl6VtDCder26DDdLA878clBkcwHY+PThyXSATOdXzA/mCminB9Q8aVdu0P4/4sp3WcSWt9wcZakzPIPg1pk7zaUa6rY12lTAG0Z1Ua+NMS4iKxCA8w8UjiRPnWV02+RbsqW8Wwoeu9U36bN6RF5gJlPWVm6B5/TqPm51LCbHbSdhn2jGbdkvAS7+mOx1q/ZWPN+IhRTlPdpqLmy5F+2OSV5tI9wTFtgdpRzq7KrXutYaQgZQryXu0gwtzmivJYW0t/WmK4GrHokLWurM4aiShJR1tJyUEHOWiu1lVbBiLNXvQwLiltdow3tYJGg7zYsGVTpTHEPg0dNI+9tTS/xBD8YKPsjSWVXU6uZthckWhugE1MDVgbt25vc0TSP7TFeL6SCL6FWy5/XBcC+nsrec4BT3oAkDRLh39rjtvKpAVOuqLzRPmuYwQ773Bpek5uhjJtScocAXVrgLCbT3YYGRPM2VHdqOyqVnKcaaSlibNnlaLU7dDnKKVeXx4yRi6ZO9tamSWzy7SnUi5vyZNgz2ZlLDAabo5pPWg2fqBXrI7gnyPN3azHQLQ6R8Vf1uO4zG55ydJf4CfmSSPlr0gRbfpyDmKYVJmrzVWvTJXNx1GXPf29ZqPhcJfN43OeDDvayiolx5s0KfwNU32ET2nvgndNhlImEScL3J/02s+Yeuysq8HVtadOeWpvelDPSUfjdq4yqA18iUqtUqQu8sohB53XLlnfO8NZf7itjdsqhW825fCvFAQCN0H4NE2WKNdo0uUyMS4gB3qt3adMDsZt4wVho4ly+q1mTLQ8Q6NOW5oiwu4M9NlNxtPswT/qamv1wedOlEcbdofKl+gNATQ9V5auVimRJvOQ5e929lpN750n3PScRT3SVYrfqlfPpxHuP4o2P+nbuCxHX7ElQy72Ei7lJqzvHm1tNfkfUcOO5ooGeUeFgn9G8Q9Z3F6d9dkQe4ggbrWMrNhe7dC/X/NGiSFXwLxvjWO5Bx0U3l/818jCP/v0609veq2yv1v68C7DRPc4uPkWMOUvzk8yPtdtKs2qZCwofHlh/T6dIvjABEm0lxc32vzWkVBecao9h2EQ0lT+PyotPkNGKNe91b55UVC/kVlUXtJEVxer60/VIupwHspbe9D/68aUVe++Ed4PMGgs/lE17f+VbjZ06ZbxQTtqrVGVGH3O6CSJ1tBdxluMr2r01yhHQ94mA21NY7Kc2n07VJKQzSK0PC8vrWMW8riy6vgbGta1zHFo+pqWqKsO/FwT6F6knKf3lNaa2FPLS3QnOwK82OSZyux/9C0dxsTg8pzKPXp1iIvT7TC8Xtl8hmVwbEnhkaM6GbMQ4fpz/ZK0exv0yoCZQDray0uYacBAhkLxft5SlRngKaacxurSapPvmYpKCtMqTrWwcyaCP3fY0fjTAgP76MTlG3ZWbVMHO15HXJamyupjrGsAX13btc+//CGaste3+UWIMuu7fhHyjB4w1ejQ4sJPy7KSruPRbClEP0vuU8nEsHP9K1VEjj5+DAcmb+aaCNlwuHJuRfTVhWuRc53qbSvaeDKKgmNFhLL82h300n5eWmFZ7kjLKTvaeJHm1h/Q8T3wcVlBbdmlrJpzY6w7QpgvenKyaSPSea2PWTkue+HFYMJFFXD55vq9rrzSLpd3P235QhwZgLhAukajaPPvpFH2Uz0DGm0YSzDA+fBUliYck37mcrGLZql0QbSATKDcqLOjvoNxX0jW7G+p5Jr8rCRsCQKT3LLJv6wmrW+0WTN2K/n3e7Dl+gO/0EiDiRuTrqk9MOTKa6RXv/09PX2FOsZhQlob6zmEK1ZW/Hp/ziK+JsRy7b4TsvotJbR5TvUdrTmWEZZoxKqKYMIdG8eC+r3/PjaOnI7KS5r2ZgZvVGJSTVW925nfTPiM/RFbj8WVsyG4WCjyxJHXuISrKD/UtEHG0yWhJL38cMq8ouImP+2Sl8/bhtRqr+lCohgSWjL+3IshhIvupah3N9x25deh+GtsfppcLEDsy9NKqH7xfSUROPduxMQoU4X/vbeComGi2Idi9OX46pJE8uyKlpe01rcNfUv0fITrqyVSpafWnbOOGQbUwHU0p2nOHaG+ZAQH7HFz4cGVpRU6oXPJ+lzlAnpue3fSmu0WH487jEandhvfchdtsr3DdA5Trs0I+8MlvXFd/g+KkYocciDwWNvb7be4Sob9f/GKAu1YwBll7zjKuP/ma3aU8xOuTxCyJSs29NCxFp6e35jLlGq+JawktzQ3hHD9ykjX6TQdxZ0+X/ao03HFI1jiR951+nAPsyGWJM15rZafcP2ScEVZvf7PeXX+RQ1FnDhqzatS8qEk15apg9c6Pim4slireJeOOUHXUrL0P+EbNURhS/K3rX67tNvvjiAuOagNYaImGOBJs6HTv/RB10TqqnpewvWXx2Sba8su59V8LFFrCwvzmCAEihqm/QrekmHoVJpbVuIyC19YlymPFI3D6PYg/E8icG7yE7OoT/0ZEqYPc9TK9AmPSrJQoiyoiJzbEW2KoZWoby7fHr7NihWLn0wS+COKrpzqvKwp480OM1e5eUdQCzjaSWuwGH0/SqfplKNYLw+29QQCh/G9frq1uSpNhBwI1Aj7iBQKeWO0WLVHb/UaDRyTKhJO0uSsMc6lbO+fZTyasrX5kRh3TJ5sba6inbHlzVZSzUO6KUpVBFenME25QtTZ5W/W/Rf0lPBxrvO9Hnb3R6TW865QAnqVJMl5Jd/4+2bC92h0m00XdipXh5h3SbLnng/7XBPMf0Elr7Pb/YJFynR5WKCxtFVPY91m35yh3G6keni5XoHkRRPnMEtaUQmfiRrQJYlmzwlFskQS8OTAxcgDLfA9f0nzb3o2P6sJdf54RydHLwuQ9sB/SQTOfXzOQyiWyzcUua88psqbQALGIPdu0HiiE2gd+/1pIVEr8Tvawx5n/785+/uuWTnnYLn27LeVim83+7eBRp0GXYFro64wWyXjN5QCOhqwk3azx/j77fLg1TdlNZ5lFooS9bpINIdxeHZEMPVLlNEbvZdpyk2SrlTy23cBPRSnyhcI7L5nxvBHvVcE6hUhQ/1tKS8jMOWkf4eYyt8ua8EN2mx9dJEkScb6SMCwTUqzcp49XONbrghIm/0jweq0YIWEUmkYJ89YSVFKCsNogoXSvw+uzvmOjXXN74oZ8SaJj/whfv8Rs1LBVmrUkdSgJYklITyOKVamYia6k+eqNxYSRcVazYrxrOzIyj0IdxOBc1E6GwZqdGBsQpwbeYw+OsfOQG4rkWuFuXsPe2hBEkfRKaaPeok+5/Ub1/58w3ndiQ7/hGmUvpwky9+sMr5q9pcbdloOlltaUMi6Ml35HPpPEeEVDElyzcsyg38nzWM+HbL6HjIbLQzNyTRrIxiEyN+IIzLwf4bdbuRlZr+P04nIt4W+uTzs7POt8b2lheR1s4Xr2OQX4R5gud/jHEB98XsGmOJY8pzIaj46my/np5O4wTz55imU0UbFiRQKmcDq99V4rjs9grQQhYRYxN/unOQ5tBUpECaHmMlcHMbrWiBmLgKpQ39SFZxD2PzYhr2Kry7SHrG20csjz+WOuq0dDWJZ2vPK9FWq51bIRGFt87AyH4gbEcftgeiBQPCDDCGzD0bYv/qP63f/y+Ip6BfKbtP3x6/Y6bUq4sSNCVbkVVPncaPxnI2zDRVtw6LMqr2EKyBiyRuybjKgv0Z0gDZNpdbkZKt5LV/uThr5gdE8qNYwET/IurMYmZgKFG/Lt0HHUXKeBJ0HtfsP0TmdaNM83G4bqoTOv526rAvbRcqkf26Xxf9cxHzMMuS+zWQ6GiU6q8o7w1bnv0F+xrq++UtEfZV0u9mH4YKFKaE+mTCiJAuQuUc7JdyuW6OCePFmjqI+MUrjkgXBz4IwHeK7LJQX7avoKwqIMvZGiXWhv1aBUCRbmaHJztWEO5XHJ/KBuBbH6+Wo8Vv2gwA2RKZu1FUjFeQetUDlUOKbSKWn+96I01STl7m+shkd2w1n1ApxiddHFu6DK8vbT1Tnov3f0A/ptBkPVq7/UXY5J7KHLcY9kzZiM77HNR1dPUYbjTiuXBN+98wnLmmpbDEteNTVe2l8KzRUW/oK2o9jxhoTz3/Se/3u+Kvj8AK9d7CpM68o9GEaE+J8lnAYXZKF7ECOcoSEKR7DyxQH3zkYmwlqMipg0twDb7XoeM9Mo9QQFkMdOpW3qcFyc2p+0ZNRcRrqJALn/s3fPsQlxD+eoT4bZE9JTA60oVtf/8m/r+AVgOQ/GdmfN7lmoqw1Qhi2F+zqCjzElISJpHLlao12m373vpbj75y9+IcP3tkTeUMDBTZVHHm3u2V3oXrF2IGIoA/yOdQXbaxijzbQ9707aYxJ43jH6N/hQbe9B3npUmK0exaB9H3FxhbO9IcwWydPuqP/5vdQI2lJEqkv4FUovLdnI83dQchM6iuGPkzFYTJ6+5kaHmEfrEKOkEmpMaWVMA6+t6ngd2BNvKn5aZsbus901JflqeTzeYbOc9lQrkWn8hKHdqdgDT5xmKe+xj9smN1L+15d/XdP/PLzbfuRP2vyH7R1hnwUTH0kf/Ky7rkmcaiykbM3JpJr8jfmZiCHV2gI0WgUm1JCiSJbh/4Ewy7HRet5q/XCBRvBplxBQf6VlbIudA6Nq3jATlq/yXipqELh/YU4jCY2EvalLN6opiAApOkqWQvhY23K0WG8mst/emJc3BwWNkvAvLQ0327ZXLEYTWqfF1Wo3H22STPuU2DchiZbwLc373d/fnIDARXlg9vl5JyIFUtQzEm8fJKelKB1kv8YBem6yeP7noSq6FSedgf6Q5krbNYLVqvVYr3kIhlX+JCtsbxBlijn0BLBzkVjjF56xt06Q3tfnY2TfwSfah7+01mWvJBkJH8SM2lqqgybDSfZEz+SNfVvv1mlTecjXORa9XjCOR54lEmWyNNzdbubjv/u7MkGnZJ9mS5lb2u1BrH32E4aLcRlOj3mTxi2Gs/QdmqSTKOR87QSemmRWvMMbdGgIIoDHZMydUnT8R6moig9PdVHTMmypd+hmxxxEkwEW6gaMbiySLaQ8VQM2e3MgmCcpj12+w2miGjR0ntwmo7T0sRvi6SLWXV67fTBxYkL4q2BL0pTF+j3Hu4+97v23dmcfMoDp5pPT2qa8DZzXy8mCOciDJEpKuZsUpx96471dPSLOXYQLvz2S/RWNOb7334n6f4auYIrdhuTthFXbStXhd9OoXrt1yJMJ3IwJNuevzRK31B44M096Yyr1223Xw2WJM3UKGgGIc8ZzUMC77/0jgqmyNVEEZc1JlSiLshgfrjUxeaaiScdJ60NB30nNZC8JKlmbRrN4lKFgrHQXRfen8gxlOAe3/N3sVLJhmm5ejrpuJHIgvtPGe3MUhpHO/iRi8f4buoKNlaBumA0DUTR/gBBhKQe9VYb8Xh4r6NbYrlmd3vLZqbvFHExQd4HkjicO2/+Q1nbAxbbR//5c/QOYM9/RuvbRSVR+faagAQUBbtxJDmKaTVdRcgBFxubI4sYmzPYY/Qd/A3RBSV+bf5Z9uqMosMR/GLzVRnsEbdbrr+EeNBSONkdyfNGk8N0+jxtVuOqtazDN6T94Au4crtuFbPmJ+2/eqXGl4A8uCD/d6q/Y9ceI3MYG08v4iYnk2eomQNjru5m//Ewfkm+q5Sjs9XIRPVGKjnRe5L0l5mHgcBjam69HIJqsEiX8VdHWXd5SoZ6BY+XM7hSDL9jKzLYDA8jtsMHx32QuDqrCtZnZJcfNLEpjEdc1mPVG1/KyK7hHIwO7gUmy1TJaL8K9RfXvR6/D5Z/f77fTzaZ8h4r/kH4k7KAndSzx+/UbRr6Xfudu2zQF0+z6C4qg0qi8tzbW3855+/l99/lzf7mvoiwD+Mxvf6GlTcdX1/zxvWVbeecFFrI734jgrUwEnBGLPSnjqvWMMRK2Zu2N1ykGQQFNjw/Ib+pSFOpT2dSBqG3SVYU8IdMhAwXSgxYspUTYIQry8oCs0YuW6d9llaGtDXvMvjzCYSI8l3wmPbser25ZlPGy1vrjGxSrjClJ3hZkqnNYOLqEP4VlUa/M5RXEOloKqcP/qICmGKjlllb8Fa4DxeTlYU5bHYFT3d1+bGAfIyBKlFoN6IBme1oe/YQymVcbvIatqRpZ3ZpvdHhpkjLa9UBqSGCanNmJDpNEz9+7XvAPaE4F+Gw+qezf9YUsHv2V/fXJ5u+QHz61mufnzv55ScEuzPm6h/9sHvkxD7vXVQGleQiuaHy8WfSQ3nnHsCeVFVcKh2LgRr79PUYeROJenM/F1UzBxOCGlqSoXnK3xGq31COsujyLuicKBskzaFJMhnfihZTouyOtPRhNlDLG8A70RCr+ZqqfVopUwt1ob4ge1NdJyc1YlA/qJtWQ1VedhEnC3CSRL17T0gCRpHmlSI5veYhLzcUbw2XBZwkOss3vurLNU65LnYY3g9+B0SQDhP+ih4JOziPhEFzzabiRgtfK0NE56sFW9rYjJ2YQl+xNuQA14Q1mPoK0oKduawfibTXF2ypN/NkdkZ5xeqLig+yUxZfrkrzPmi9MYW0c4m0vl68q5uXtUlrB7tDiy+WxSMWE0f3/htxE9d5nBpPPYvV/nbeide/+L+cF0ciqmXYVjh71neWPYzSP345zJ+lAe2Y5egfQ8kbx2lpYrcnlldMIHh0zg/LDhTIBE+9kL7A4E9iO+ps05cIKiuKmJedoDDGD04ZWo6a+iNsnklzK/JNm1p95h55ubX4x7aczUW5mSiB7lgfRj3E+283/qrVTpvJ3iiFFL7uBZxJowsI5RoNH0PzCeBewxX6Q7+ktvwT+/Zf72Gkoo6GFLlyRepS2cKUeTgybUZI98AN4trl81ZHoD86SZS+q6lqNd8Ok1S7t9y2vsZ/VgN1uTTLpMjM1axWyKWSOUIBNeRCKWstJ9/mGrYoXLSiOOIhuvF6xHsfT99ZW+AsaafJ1G0z6DN7lqlUKmXqIjFKkEG6XdfsloD8uUhQirrqF2Gz6vA2FLuLKB1ona6XzseG7FbHsfK178nSX1Qpn0L5czGUytf5sc38rhlZsqxW81UV5f7HD75qu371ef8b7UZcplfXEefyC7XrVHL/G+qomzZjS11DN7NDK9FoWC9N7Ho6DS1NLa1Mg4KTEok200r+15z3j905c+xOkPWK5I3c+SZc/sYnxA+t3jB7mjbNJphXTIB/e2x/Kkmev03Vs5OOmXXb0Gtg2nCJFOXeHrnlHvCwITUCXJGZeqPbyvp/afSwZbp9P3dtraJfHoPeivZ6SefrGC5+cg725e1BrhBkhaTp/mfYPLnenTQ6u6NPPLYiDEFHMXaiVRVH3pRUl7/BfZEBNeCwdDkskavPlWt3N5SFT6Yjyd7fQpawCYWHXfbOBnuEQ2mI4w5MU1ZslC3sjXpqe/kJ1ob1XDV3or8wfcQWqCsO7GHTe4cpdh8vo3xsTQ23i//RwAaNuwnLMSLsqKEklgdqOT0SoUSNNwbRCyB8tgLlPNO6C/0l46K5cwTDtzxDAY5vyZqKwuX3f9E5JYAnmm+BCwqizh3/+4n/nvNoNKkS8HkPoZKo/DQR7r2Mlkhd21QW+GZJ0uXsJ5w3OVyZLNVUt6P3Cjwaxuclyaw90qANPIRGIQvLFcDaAsFcFKNer10UXl/uTpq3lEiVzQYhhK8W9g6+TFv/L2/vLUjjfxEkTz1cqta3dLRHINyxSpisoOn4Pq2c8RrziPJdwiSrdC1Ha9XTkczX36hIuQMdAtRE8TZ5TLJaf8hQqwnJaR5W/ft0A1+hP/JmlWbJ+H580YrCA2815SwJJE1crvv1oYqg3O3DpAdtGn09kPIAAARrSURBVAcQLibNrP31rujSA90nKCbUbGLauQwEyODN+6fH1/7ssY8vfHXlQ+o/+u9+8ddvvrj9NfoXEfFjcx5C/yIfQurz2He//8gj2P3O1hh26BB9tLy9zNDc1N4TtL5GVXCJAqUm3ZyrQHs1IQFeXJGiVfojz2SZjjQbTnNemsKUSJYoMrW6LfyHgzlycKUyVWCx+q8syMgNTjMWththbyRL1WUtai1hOt1hMplt/aynmFMFw6VPK1emq9dmKaPlIy9/HVmRYTrSaug+zzn3QUtNwiSKjJwIr9oNq/EkbqBDgFXHV+WaDOGU8b56ObegSKOYzBvgJ6HQvVfBFml2H1floPf+Hu+x9oVEIo773t9kWc5rXarsjsNtBpOdcwiC1gydlcgp1BWtjna8771HMZCQCO/miQFM8dMEedPR23sNJRKjBEJ8njhlkTz1KQnPKd5xNKY8fSgzmdM1RFIjAmyuWCJNTZVLo8vkRJr0L+2iY2Nl27qOb4k2Lnccpejb1JCT+PjGjYEBkkSH+73dFItEKbKnZXxnQ6OUifLqBnQZHRFLWShDfR7fCo66hQkURJnhiF7imtuDuihALh7xApk8VYay/zy4H2qQ6HUQaGaSIyPeHokXypDzPPoeDTkdvcSNAQTJiEAoFH1LuhBNSW9GykT7AOcm2ohOe3+cho3rGhy+U2roDVq/bcnh5Bib9tahAUDgAUcgkf25D/jQxKf6pOVQu59wkVfj+Zx43ueJTwRBqxmOAHDuDJ8AE+u+q7v6NebcEHq716bIacwmJhxKAwIzAYEE30ObCUM4fX1EHrobw09K5otwIeX55CNbt+HgETYQTZSpz4+Qbnz61ALJgMCDjABw7oM8etOs+633XlvfGCZHzAJNVVnihO9MM5AgHhBgEQDfAsyGiSMwX7X7wE7l/dnxn7i2UAMQiCcEwM6Np9F4AHTBpKu3V+zQKvhe8PMAqA8qAgL3GwGIFbvfIxDP7Q86TJbzvddd3teOJYtTFqemrYr4huB47gvoBgjEBwLAufExDqAFIAAIzAwEwJ87M8YZegkIAALxgQBwbnyMA2gBCAACMwMB4NyZMc7QS0AAEIgPBIBz42McQAtAABCYGQgA586McYZeAgKAQHwgAJwbH+MAWgACgMDMQAA4d2aMM/QSEAAE4gMB4Nz4GAfQAhAABGYGAsC5M2OcoZeAACAQHwgA58bHOIAWgAAgMDMQAM6dGeMMvQQEAIH4QAA4Nz7GAbQABACBmYEAcO7MGGfoJSAACMQHAsC58TEOoAUgAAjMDASAc2fGOEMvAQFAID4QAM6Nj3EALQABQGBmIACcOzPGGXoJCAAC8YEAcG58jANoAQgAAjMDAeDcmTHO0EtAABCIDwSAc+NjHEALQAAQmBkIAOfOjHGGXgICgEB8IACcGx/jAFoAAoDAzEAAOHdmjDP0EhAABOIDAeDc+BgH0AIQAARmBgLAuTNjnKGXgAAgEB8IAOfGxziAFoAAIDAzEPj/RRgDsc+LUE8AAAAASUVORK5CYII=;" parent="1" vertex="1">
          <mxGeometry x="1070" y="770" width="377.26" height="86" as="geometry" />
        </mxCell>
        <mxCell id="mXFN20k_gTlfW2L4US2_-2" style="edgeStyle=orthogonalEdgeStyle;rounded=0;orthogonalLoop=1;jettySize=auto;html=1;exitX=0.5;exitY=1;exitDx=0;exitDy=0;exitPerimeter=0;" parent="1" source="7eVTfoRR0JfXgOaUvfjx-1" target="S3vcfllFPhW6Z8eUjY84-22" edge="1">
          <mxGeometry relative="1" as="geometry" />
        </mxCell>
        <mxCell id="7eVTfoRR0JfXgOaUvfjx-1" value="" style="sketch=0;points=[[0,0,0],[0.25,0,0],[0.5,0,0],[0.75,0,0],[1,0,0],[0,1,0],[0.25,1,0],[0.5,1,0],[0.75,1,0],[1,1,0],[0,0.25,0],[0,0.5,0],[0,0.75,0],[1,0.25,0],[1,0.5,0],[1,0.75,0]];outlineConnect=0;fontColor=#232F3E;fillColor=#01A88D;strokeColor=#ffffff;dashed=0;verticalLabelPosition=bottom;verticalAlign=top;align=center;html=1;fontSize=12;fontStyle=0;aspect=fixed;shape=mxgraph.aws4.resourceIcon;resIcon=mxgraph.aws4.datasync;" parent="1" vertex="1">
          <mxGeometry x="1042" y="-160" width="78" height="78" as="geometry" />
        </mxCell>
        <mxCell id="mXFN20k_gTlfW2L4US2_-1" value="" style="shape=image;imageAspect=0;aspect=fixed;verticalLabelPosition=bottom;verticalAlign=top;image=https://upload.wikimedia.org/wikipedia/commons/2/24/Epic_Systems.svg;" parent="1" vertex="1">
          <mxGeometry x="638" y="-380" width="190" height="74.17" as="geometry" />
        </mxCell>
        <mxCell id="mXFN20k_gTlfW2L4US2_-6" style="edgeStyle=orthogonalEdgeStyle;rounded=0;orthogonalLoop=1;jettySize=auto;html=1;exitX=1;exitY=0.5;exitDx=0;exitDy=0;dashed=1;" parent="1" source="mXFN20k_gTlfW2L4US2_-4" target="S3vcfllFPhW6Z8eUjY84-19" edge="1">
          <mxGeometry relative="1" as="geometry" />
        </mxCell>
        <mxCell id="mXFN20k_gTlfW2L4US2_-4" value="&lt;font style=&quot;font-size: 16px&quot;&gt;Workflow&lt;br&gt;Automation&lt;br&gt;(Separate Diagram)&lt;br&gt;&lt;/font&gt;" style="points=[[0,0],[0.25,0],[0.5,0],[0.75,0],[1,0],[1,0.25],[1,0.5],[1,0.75],[1,1],[0.75,1],[0.5,1],[0.25,1],[0,1],[0,0.75],[0,0.5],[0,0.25]];sketch=0;outlineConnect=0;fontColor=#232F3E;gradientColor=none;fillColor=#D45B07;strokeColor=none;dashed=0;verticalLabelPosition=bottom;verticalAlign=top;align=center;html=1;fontSize=12;fontStyle=0;aspect=fixed;pointerEvents=1;shape=mxgraph.aws4.lambda_function;labelBackgroundColor=none;" parent="1" vertex="1">
          <mxGeometry x="1360" y="-15" width="48" height="48" as="geometry" />
        </mxCell>
        <mxCell id="mXFN20k_gTlfW2L4US2_-8" value="" style="sketch=0;points=[[0,0,0],[0.25,0,0],[0.5,0,0],[0.75,0,0],[1,0,0],[0,1,0],[0.25,1,0],[0.5,1,0],[0.75,1,0],[1,1,0],[0,0.25,0],[0,0.5,0],[0,0.75,0],[1,0.25,0],[1,0.5,0],[1,0.75,0]];outlineConnect=0;fontColor=#232F3E;gradientColor=#F78E04;gradientDirection=north;fillColor=#D05C17;strokeColor=#ffffff;dashed=0;verticalLabelPosition=bottom;verticalAlign=top;align=center;html=1;fontSize=12;fontStyle=0;aspect=fixed;shape=mxgraph.aws4.resourceIcon;resIcon=mxgraph.aws4.ec2;" parent="1" vertex="1">
          <mxGeometry x="630" y="20" width="78" height="78" as="geometry" />
        </mxCell>
        <mxCell id="mXFN20k_gTlfW2L4US2_-9" value="" style="sketch=0;points=[[0,0,0],[0.25,0,0],[0.5,0,0],[0.75,0,0],[1,0,0],[0,1,0],[0.25,1,0],[0.5,1,0],[0.75,1,0],[1,1,0],[0,0.25,0],[0,0.5,0],[0,0.75,0],[1,0.25,0],[1,0.5,0],[1,0.75,0]];outlineConnect=0;fontColor=#232F3E;gradientColor=#F78E04;gradientDirection=north;fillColor=#D05C17;strokeColor=#ffffff;dashed=0;verticalLabelPosition=bottom;verticalAlign=top;align=center;html=1;fontSize=12;fontStyle=0;aspect=fixed;shape=mxgraph.aws4.resourceIcon;resIcon=mxgraph.aws4.ec2;" parent="1" vertex="1">
          <mxGeometry x="731" y="20" width="78" height="78" as="geometry" />
        </mxCell>
        <mxCell id="mXFN20k_gTlfW2L4US2_-10" value="" style="sketch=0;points=[[0,0,0],[0.25,0,0],[0.5,0,0],[0.75,0,0],[1,0,0],[0,1,0],[0.25,1,0],[0.5,1,0],[0.75,1,0],[1,1,0],[0,0.25,0],[0,0.5,0],[0,0.75,0],[1,0.25,0],[1,0.5,0],[1,0.75,0]];outlineConnect=0;fontColor=#232F3E;gradientColor=#F78E04;gradientDirection=north;fillColor=#D05C17;strokeColor=#ffffff;dashed=0;verticalLabelPosition=bottom;verticalAlign=top;align=center;html=1;fontSize=12;fontStyle=0;aspect=fixed;shape=mxgraph.aws4.resourceIcon;resIcon=mxgraph.aws4.ec2;" parent="1" vertex="1">
          <mxGeometry x="480" y="70" width="78" height="78" as="geometry" />
        </mxCell>
        <mxCell id="mXFN20k_gTlfW2L4US2_-11" value="" style="sketch=0;points=[[0,0,0],[0.25,0,0],[0.5,0,0],[0.75,0,0],[1,0,0],[0,1,0],[0.25,1,0],[0.5,1,0],[0.75,1,0],[1,1,0],[0,0.25,0],[0,0.5,0],[0,0.75,0],[1,0.25,0],[1,0.5,0],[1,0.75,0]];outlineConnect=0;fontColor=#232F3E;gradientColor=#F78E04;gradientDirection=north;fillColor=#D05C17;strokeColor=#ffffff;dashed=0;verticalLabelPosition=bottom;verticalAlign=top;align=center;html=1;fontSize=12;fontStyle=0;aspect=fixed;shape=mxgraph.aws4.resourceIcon;resIcon=mxgraph.aws4.ec2;" parent="1" vertex="1">
          <mxGeometry x="681" y="70" width="78" height="78" as="geometry" />
        </mxCell>
        <mxCell id="S3vcfllFPhW6Z8eUjY84-26" value="&lt;span style=&quot;color: rgb(0 , 0 , 0) ; font-size: 16px&quot;&gt;EC2&lt;/span&gt;" style="sketch=0;points=[[0,0,0],[0.25,0,0],[0.5,0,0],[0.75,0,0],[1,0,0],[0,1,0],[0.25,1,0],[0.5,1,0],[0.75,1,0],[1,1,0],[0,0.25,0],[0,0.5,0],[0,0.75,0],[1,0.25,0],[1,0.5,0],[1,0.75,0]];outlineConnect=0;fontColor=#232F3E;gradientColor=#F78E04;gradientDirection=north;fillColor=#D05C17;strokeColor=#ffffff;dashed=0;verticalLabelPosition=bottom;verticalAlign=top;align=center;html=1;fontSize=12;fontStyle=0;aspect=fixed;shape=mxgraph.aws4.resourceIcon;resIcon=mxgraph.aws4.ec2;" parent="1" vertex="1">
          <mxGeometry x="580" y="70" width="78" height="78" as="geometry" />
        </mxCell>
        <mxCell id="mXFN20k_gTlfW2L4US2_-12" value="&lt;span style=&quot;color: rgb(0 , 0 , 0) ; font-size: 16px&quot;&gt;EC2&lt;/span&gt;" style="sketch=0;points=[[0,0,0],[0.25,0,0],[0.5,0,0],[0.75,0,0],[1,0,0],[0,1,0],[0.25,1,0],[0.5,1,0],[0.75,1,0],[1,1,0],[0,0.25,0],[0,0.5,0],[0,0.75,0],[1,0.25,0],[1,0.5,0],[1,0.75,0]];outlineConnect=0;fontColor=#232F3E;gradientColor=#F78E04;gradientDirection=north;fillColor=#D05C17;strokeColor=#ffffff;dashed=0;verticalLabelPosition=bottom;verticalAlign=top;align=center;html=1;fontSize=12;fontStyle=0;aspect=fixed;shape=mxgraph.aws4.resourceIcon;resIcon=mxgraph.aws4.ec2;" parent="1" vertex="1">
          <mxGeometry x="772" y="440" width="78" height="78" as="geometry" />
        </mxCell>
        <mxCell id="mXFN20k_gTlfW2L4US2_-16" style="edgeStyle=orthogonalEdgeStyle;rounded=0;orthogonalLoop=1;jettySize=auto;html=1;exitX=0.5;exitY=0;exitDx=0;exitDy=0;exitPerimeter=0;entryX=0.5;entryY=1;entryDx=0;entryDy=0;entryPerimeter=0;" parent="1" source="S3vcfllFPhW6Z8eUjY84-10" target="mXFN20k_gTlfW2L4US2_-10" edge="1">
          <mxGeometry relative="1" as="geometry" />
        </mxCell>
        <mxCell id="mXFN20k_gTlfW2L4US2_-19" style="edgeStyle=orthogonalEdgeStyle;rounded=0;orthogonalLoop=1;jettySize=auto;html=1;exitX=0.25;exitY=1;exitDx=0;exitDy=0;entryX=0;entryY=0.5;entryDx=0;entryDy=0;entryPerimeter=0;dashed=1;" parent="1" source="S3vcfllFPhW6Z8eUjY84-19" target="S3vcfllFPhW6Z8eUjY84-10" edge="1">
          <mxGeometry relative="1" as="geometry">
            <Array as="points">
              <mxPoint x="1683" y="740" />
              <mxPoint x="430" y="740" />
              <mxPoint x="430" y="479" />
            </Array>
          </mxGeometry>
        </mxCell>
        <mxCell id="mXFN20k_gTlfW2L4US2_-20" style="edgeStyle=orthogonalEdgeStyle;rounded=0;orthogonalLoop=1;jettySize=auto;html=1;exitX=0.25;exitY=1;exitDx=0;exitDy=0;entryX=1;entryY=0.5;entryDx=0;entryDy=0;entryPerimeter=0;startArrow=none;startFill=0;dashed=1;" parent="1" source="S3vcfllFPhW6Z8eUjY84-19" target="mXFN20k_gTlfW2L4US2_-12" edge="1">
          <mxGeometry relative="1" as="geometry">
            <Array as="points">
              <mxPoint x="1683" y="740" />
              <mxPoint x="930" y="740" />
              <mxPoint x="930" y="479" />
            </Array>
          </mxGeometry>
        </mxCell>
        <mxCell id="mXFN20k_gTlfW2L4US2_-22" style="edgeStyle=orthogonalEdgeStyle;rounded=0;orthogonalLoop=1;jettySize=auto;html=1;exitX=0;exitY=0.5;exitDx=0;exitDy=0;exitPerimeter=0;entryX=1;entryY=0.5;entryDx=0;entryDy=0;entryPerimeter=0;startArrow=classic;startFill=1;" parent="1" source="2tOeyaOIQDvBSedVUTa_-4" target="mXFN20k_gTlfW2L4US2_-9" edge="1">
          <mxGeometry relative="1" as="geometry">
            <Array as="points">
              <mxPoint x="1020" y="209" />
              <mxPoint x="1020" y="60" />
            </Array>
          </mxGeometry>
        </mxCell>
        <mxCell id="mXFN20k_gTlfW2L4US2_-26" style="edgeStyle=orthogonalEdgeStyle;rounded=0;orthogonalLoop=1;jettySize=auto;html=1;exitX=0.5;exitY=0;exitDx=0;exitDy=0;exitPerimeter=0;" parent="1" source="mXFN20k_gTlfW2L4US2_-25" target="mXFN20k_gTlfW2L4US2_-1" edge="1">
          <mxGeometry relative="1" as="geometry" />
        </mxCell>
        <mxCell id="mXFN20k_gTlfW2L4US2_-25" value="" style="sketch=0;points=[[0,0,0],[0.25,0,0],[0.5,0,0],[0.75,0,0],[1,0,0],[0,1,0],[0.25,1,0],[0.5,1,0],[0.75,1,0],[1,1,0],[0,0.25,0],[0,0.5,0],[0,0.75,0],[1,0.25,0],[1,0.5,0],[1,0.75,0]];outlineConnect=0;fontColor=#232F3E;fillColor=#01A88D;strokeColor=#ffffff;dashed=0;verticalLabelPosition=bottom;verticalAlign=top;align=center;html=1;fontSize=12;fontStyle=0;aspect=fixed;shape=mxgraph.aws4.resourceIcon;resIcon=mxgraph.aws4.datasync;" parent="1" vertex="1">
          <mxGeometry x="694" y="-160" width="78" height="78" as="geometry" />
        </mxCell>
        <mxCell id="kl0PqMMdy4oTnuemaF6G-1" value="&lt;font style=&quot;font-size: 16px;&quot;&gt;AWS DataSync&lt;/font&gt;" style="text;html=1;strokeColor=none;fillColor=none;align=center;verticalAlign=middle;whiteSpace=wrap;rounded=0;" vertex="1" parent="1">
          <mxGeometry x="1130" y="-100" width="60" height="30" as="geometry" />
        </mxCell>
        <mxCell id="kl0PqMMdy4oTnuemaF6G-4" value="&lt;font style=&quot;font-size: 16px;&quot;&gt;AWS DataSync&lt;/font&gt;" style="text;html=1;strokeColor=none;fillColor=none;align=center;verticalAlign=middle;whiteSpace=wrap;rounded=0;" vertex="1" parent="1">
          <mxGeometry x="781" y="-100" width="60" height="30" as="geometry" />
        </mxCell>
      </root>
    </mxGraphModel>
  </diagram>
</mxfile>
